<?xml version="1.0" standalone="no"?>
<!DOCTYPE svg PUBLIC "-//W3C//DTD SVG 20010904//EN"
 "http://www.w3.org/TR/2001/REC-SVG-20010904/DTD/svg10.dtd">
<svg version="1.0" xmlns="http://www.w3.org/2000/svg"
 width="502.000000pt" height="502.000000pt" viewBox="0 0 502.000000 502.000000"
 preserveAspectRatio="xMidYMid meet">
<metadata>
Created by potrace 1.11, written by Peter Selinger 2001-2013
</metadata>
<g transform="translate(0.000000,502.000000) scale(0.100000,-0.100000)"
fill="#000000" stroke="none">
<path d="M2349 4685 c-2 -1 -25 -6 -51 -9 -73 -10 -206 -51 -288 -89 -239
-111 -448 -320 -560 -560 -37 -79 -86 -229 -96 -292 -18 -119 -21 -176 -19
-290 3 -115 8 -161 30 -255 3 -14 8 -35 11 -48 2 -12 14 -48 26 -80 12 -31 23
-59 23 -62 3 -21 87 -170 133 -235 66 -95 81 -112 238 -274 206 -213 275 -305
334 -447 45 -109 61 -191 65 -339 9 -279 -76 -515 -254 -708 -84 -91 -249
-189 -382 -227 -97 -28 -277 -35 -373 -15 -263 57 -482 250 -551 488 -57 195
-5 401 135 537 90 87 90 87 167 116 219 82 438 -44 449 -258 4 -69 -23 -117
-76 -134 -43 -14 -77 -3 -115 36 -57 59 -155 24 -174 -61 -30 -135 62 -281
200 -316 47 -12 150 -11 202 1 216 50 343 228 352 493 6 175 -51 326 -168 444
-77 77 -92 88 -192 139 -114 58 -221 84 -345 84 -148 0 -223 -17 -355 -79
-248 -116 -426 -344 -492 -629 -30 -131 -25 -363 10 -486 68 -240 192 -417
405 -577 112 -85 316 -176 452 -202 30 -6 66 -13 80 -16 49 -12 266 -11 345 2
102 16 222 52 306 92 36 17 69 31 73 31 4 0 12 4 19 10 7 5 53 37 104 70 166
109 346 306 435 476 51 97 116 286 144 421 12 59 69 216 103 284 103 206 262
369 457 468 213 107 491 130 714 59 260 -83 472 -297 544 -548 18 -62 35 -192
30 -230 -1 -14 -5 -48 -8 -75 -19 -175 -145 -370 -302 -465 -215 -130 -458
-114 -614 42 -132 131 -155 305 -58 433 46 61 121 100 173 91 54 -10 97 -58
91 -100 -3 -17 -8 -49 -11 -71 -6 -45 4 -64 50 -87 81 -42 199 20 248 130 51
116 12 270 -96 377 -196 194 -514 179 -725 -35 -83 -84 -159 -221 -177 -320
-18 -98 -22 -135 -19 -197 2 -68 4 -76 25 -168 38 -161 163 -336 312 -437 154
-105 291 -148 482 -154 143 -4 225 8 346 50 254 88 482 293 597 536 35 75 80
222 90 295 8 67 8 267 0 335 -33 258 -146 480 -358 699 -153 159 -423 302
-630 335 -110 17 -146 20 -255 20 -169 0 -226 -9 -468 -80 -115 -33 -135 -38
-207 -52 -19 -4 -102 -7 -185 -6 -126 1 -166 5 -252 27 -343 86 -600 316 -701
624 -29 89 -37 152 -36 293 0 107 4 138 28 215 33 107 63 169 121 250 103 145
258 252 418 290 82 19 230 17 308 -5 282 -78 467 -334 425 -590 -19 -115 -121
-246 -218 -282 -71 -25 -162 -19 -220 14 -60 36 -95 102 -82 157 8 31 17 40
72 66 72 35 82 46 82 93 0 70 -45 126 -123 151 -39 13 -130 17 -147 6 -5 -3
-20 -8 -32 -10 -31 -6 -95 -53 -127 -94 -67 -87 -97 -197 -87 -323 22 -279
247 -465 571 -473 228 -5 464 122 597 320 118 176 162 436 112 664 -66 301
-304 562 -611 670 -66 23 -70 24 -178 46 -60 12 -306 20 -316 10z"/>
</g>
</svg>
