<svg width="679" height="2211" viewBox="0 0 679 2211" fill="none" xmlns="http://www.w3.org/2000/svg">
<rect x="597.033" y="1383.67" width="33.0255" height="679.284" fill="url(#paint0_linear_3738_12063)"/>
<rect x="150.801" y="1425.77" width="11.6028" height="456.221" fill="url(#paint1_linear_3738_12063)"/>
<mask id="path-3-outside-1_3738_12063" maskUnits="userSpaceOnUse" x="125.814" y="1287.15" width="180" height="806" fill="black">
<rect fill="white" x="125.814" y="1287.15" width="180" height="806"/>
<path d="M128.814 1287.15H302.822V2092.51H128.814V1287.15Z"/>
</mask>
<path d="M128.814 1287.15H302.822V2092.51H128.814V1287.15Z" fill="url(#paint2_linear_3738_12063)"/>
<path d="M300.604 1287.15V2092.51H305.04V1287.15H300.604ZM131.032 2092.51V1287.15H126.597V2092.51H131.032Z" fill="url(#paint3_linear_3738_12063)" mask="url(#path-3-outside-1_3738_12063)"/>
<path fill-rule="evenodd" clip-rule="evenodd" d="M275.273 1175.92H148.898L124.743 1259.94H124.921C119.607 1276.66 128.15 1294.57 150.55 1307.5C186.759 1328.4 245.467 1328.4 281.676 1307.5C304.076 1294.57 312.618 1276.66 307.305 1259.94H307.479L275.273 1175.92Z" fill="#070B19"/>
<path d="M255.191 568.145V1158.79" stroke="#FF6648" stroke-width="2.21769"/>
<mask id="path-7-inside-2_3738_12063" fill="white">
<path fill-rule="evenodd" clip-rule="evenodd" d="M280.526 1136.73H142.36L115.951 1228.59H116.052C112.003 1245.94 121.529 1264.15 144.632 1277.49C183.946 1300.19 247.686 1300.19 287 1277.49C310.103 1264.15 319.629 1245.94 315.579 1228.59H315.738L315.276 1227.38C314.624 1224.97 313.71 1222.58 312.532 1220.22L280.526 1136.73Z"/>
</mask>
<path fill-rule="evenodd" clip-rule="evenodd" d="M280.526 1136.73H142.36L115.951 1228.59H116.052C112.003 1245.94 121.529 1264.15 144.632 1277.49C183.946 1300.19 247.686 1300.19 287 1277.49C310.103 1264.15 319.629 1245.94 315.579 1228.59H315.738L315.276 1227.38C314.624 1224.97 313.71 1222.58 312.532 1220.22L280.526 1136.73Z" fill="white"/>
<path fill-rule="evenodd" clip-rule="evenodd" d="M280.526 1136.73H142.36L115.951 1228.59H116.052C112.003 1245.94 121.529 1264.15 144.632 1277.49C183.946 1300.19 247.686 1300.19 287 1277.49C310.103 1264.15 319.629 1245.94 315.579 1228.59H315.738L315.276 1227.38C314.624 1224.97 313.71 1222.58 312.532 1220.22L280.526 1136.73Z" fill="url(#paint4_linear_3738_12063)" fill-opacity="0.4"/>
<path d="M142.36 1136.73V1134.51H140.69L140.228 1136.12L142.36 1136.73ZM280.526 1136.73L282.597 1135.94L282.051 1134.51H280.526V1136.73ZM115.951 1228.59L113.819 1227.97L113.006 1230.8H115.951V1228.59ZM116.052 1228.59L118.212 1229.09L118.847 1226.37H116.052V1228.59ZM144.632 1277.49L143.523 1279.41L144.632 1277.49ZM287 1277.49L285.891 1275.57L287 1277.49ZM315.579 1228.59V1226.37H312.785L313.42 1229.09L315.579 1228.59ZM315.738 1228.59V1230.8H318.963L317.809 1227.79L315.738 1228.59ZM315.276 1227.38L313.135 1227.96L313.165 1228.07L313.205 1228.18L315.276 1227.38ZM312.532 1220.22L310.461 1221.02L310.5 1221.12L310.548 1221.21L312.532 1220.22ZM142.36 1138.95H280.526V1134.51H142.36V1138.95ZM118.082 1229.2L144.491 1137.34L140.228 1136.12L113.819 1227.97L118.082 1229.2ZM116.052 1226.37H115.951V1230.8H116.052V1226.37ZM145.741 1275.57C123.118 1262.51 114.468 1245.14 118.212 1229.09L113.893 1228.08C109.538 1246.75 119.941 1265.79 143.523 1279.41L145.741 1275.57ZM285.891 1275.57C266.651 1286.68 241.293 1292.29 215.816 1292.29C190.339 1292.29 164.981 1286.68 145.741 1275.57L143.523 1279.41C163.596 1291 189.766 1296.73 215.816 1296.73C241.866 1296.73 268.035 1291 288.109 1279.41L285.891 1275.57ZM313.42 1229.09C317.164 1245.14 308.514 1262.51 285.891 1275.57L288.109 1279.41C311.691 1265.79 322.094 1246.75 317.739 1228.08L313.42 1229.09ZM315.738 1226.37H315.579V1230.8H315.738V1226.37ZM313.205 1228.18L313.667 1229.38L317.809 1227.79L317.347 1226.59L313.205 1228.18ZM310.548 1221.21C311.663 1223.44 312.524 1225.7 313.135 1227.96L317.417 1226.8C316.725 1224.24 315.756 1221.71 314.515 1219.23L310.548 1221.21ZM278.455 1137.52L310.461 1221.02L314.602 1219.43L282.597 1135.94L278.455 1137.52Z" fill="#FF6648" mask="url(#path-7-inside-2_3738_12063)"/>
<mask id="path-9-inside-3_3738_12063" fill="white">
<path fill-rule="evenodd" clip-rule="evenodd" d="M285.319 834.493H134.748V1122.95C134.302 1134.4 141.647 1145.93 156.782 1154.67C186.186 1171.65 233.86 1171.65 263.265 1154.67C277.967 1146.18 285.318 1135.06 285.318 1123.93H285.319V834.493Z"/>
</mask>
<path fill-rule="evenodd" clip-rule="evenodd" d="M285.319 834.493H134.748V1122.95C134.302 1134.4 141.647 1145.93 156.782 1154.67C186.186 1171.65 233.86 1171.65 263.265 1154.67C277.967 1146.18 285.318 1135.06 285.318 1123.93H285.319V834.493Z" fill="white"/>
<path fill-rule="evenodd" clip-rule="evenodd" d="M285.319 834.493H134.748V1122.95C134.302 1134.4 141.647 1145.93 156.782 1154.67C186.186 1171.65 233.86 1171.65 263.265 1154.67C277.967 1146.18 285.318 1135.06 285.318 1123.93H285.319V834.493Z" fill="url(#paint5_linear_3738_12063)" fill-opacity="0.2"/>
<path d="M134.748 834.493V832.275H132.53V834.493H134.748ZM285.319 834.493H287.537V832.275H285.319V834.493ZM134.748 1122.95L136.964 1123.03L136.965 1122.99V1122.95H134.748ZM156.782 1154.67L157.891 1152.75H157.891L156.782 1154.67ZM263.265 1154.67L262.156 1152.75L263.265 1154.67ZM285.318 1123.93V1121.71H283.101L283.101 1123.93H285.318ZM285.319 1123.93V1126.15H287.537V1123.93H285.319ZM134.748 836.711H285.319V832.275H134.748V836.711ZM136.965 1122.95V834.493H132.53V1122.95H136.965ZM157.891 1152.75C143.171 1144.25 136.562 1133.37 136.964 1123.03L132.532 1122.86C132.043 1135.43 140.122 1147.61 155.673 1156.59L157.891 1152.75ZM262.156 1152.75C247.87 1161 229.007 1165.18 210.023 1165.18C191.04 1165.18 172.177 1161 157.891 1152.75L155.673 1156.59C170.792 1165.32 190.468 1169.62 210.023 1169.62C229.579 1169.62 249.255 1165.32 264.374 1156.59L262.156 1152.75ZM283.101 1123.93C283.101 1133.98 276.454 1144.49 262.156 1152.75L264.374 1156.59C279.48 1147.87 287.536 1136.13 287.536 1123.93L283.101 1123.93ZM285.319 1121.71H285.318V1126.15H285.319V1121.71ZM283.101 834.493V1123.93H287.537V834.493H283.101Z" fill="#FF6648" mask="url(#path-9-inside-3_3738_12063)"/>
<circle r="60.3692" transform="matrix(0.866025 0.5 -0.866025 0.5 210.025 834.492)" fill="white" stroke="#FF6648" stroke-width="2.21769"/>
<mask id="path-12-inside-4_3738_12063" fill="white">
<path fill-rule="evenodd" clip-rule="evenodd" d="M285.321 686.797H134.75V838.175C134.304 849.625 141.649 861.158 156.784 869.896C186.188 886.873 233.862 886.873 263.267 869.896C277.969 861.408 285.32 850.282 285.32 839.157H285.321V686.797Z"/>
</mask>
<path fill-rule="evenodd" clip-rule="evenodd" d="M285.321 686.797H134.75V838.175C134.304 849.625 141.649 861.158 156.784 869.896C186.188 886.873 233.862 886.873 263.267 869.896C277.969 861.408 285.32 850.282 285.32 839.157H285.321V686.797Z" fill="white"/>
<path fill-rule="evenodd" clip-rule="evenodd" d="M285.321 686.797H134.75V838.175C134.304 849.625 141.649 861.158 156.784 869.896C186.188 886.873 233.862 886.873 263.267 869.896C277.969 861.408 285.32 850.282 285.32 839.157H285.321V686.797Z" fill="url(#paint6_linear_3738_12063)" fill-opacity="0.2"/>
<path d="M134.75 686.797V684.579H132.532V686.797H134.75ZM285.321 686.797H287.539V684.579H285.321V686.797ZM134.75 838.175L136.966 838.261L136.967 838.218V838.175H134.75ZM156.784 869.896L155.675 871.817L156.784 869.896ZM263.267 869.896L262.158 867.976L263.267 869.896ZM285.32 839.157V836.939H283.103L283.103 839.157L285.32 839.157ZM285.321 839.157V841.375H287.539V839.157H285.321ZM134.75 689.015H285.321V684.579H134.75V689.015ZM136.967 838.175V686.797H132.532V838.175H136.967ZM157.893 867.976C143.173 859.477 136.563 848.594 136.966 838.261L132.534 838.088C132.045 850.656 140.124 862.839 155.675 871.817L157.893 867.976ZM262.158 867.976C247.872 876.223 229.009 880.411 210.025 880.411C191.042 880.411 172.178 876.223 157.893 867.976L155.675 871.817C170.794 880.546 190.47 884.846 210.025 884.846C229.581 884.846 249.257 880.546 264.376 871.817L262.158 867.976ZM283.103 839.157C283.103 849.211 276.456 859.72 262.158 867.976L264.376 871.817C279.482 863.095 287.538 851.354 287.538 839.157L283.103 839.157ZM285.321 836.939H285.32V841.375H285.321V836.939ZM283.103 686.797V839.157H287.539V686.797H283.103Z" fill="#FF6648" mask="url(#path-12-inside-4_3738_12063)"/>
<circle r="60.3692" transform="matrix(0.866025 0.5 -0.866025 0.5 210.025 687.415)" fill="white" stroke="#FF6648" stroke-width="2.21769"/>
<mask id="path-15-inside-5_3738_12063" fill="white">
<path fill-rule="evenodd" clip-rule="evenodd" d="M285.323 535.419H134.752V686.797C134.306 698.248 141.651 709.78 156.786 718.519C186.19 735.495 233.864 735.495 263.269 718.519C277.971 710.03 285.322 698.905 285.322 687.779H285.323V535.419Z"/>
</mask>
<path fill-rule="evenodd" clip-rule="evenodd" d="M285.323 535.419H134.752V686.797C134.306 698.248 141.651 709.78 156.786 718.519C186.19 735.495 233.864 735.495 263.269 718.519C277.971 710.03 285.322 698.905 285.322 687.779H285.323V535.419Z" fill="white"/>
<path fill-rule="evenodd" clip-rule="evenodd" d="M285.323 535.419H134.752V686.797C134.306 698.248 141.651 709.78 156.786 718.519C186.19 735.495 233.864 735.495 263.269 718.519C277.971 710.03 285.322 698.905 285.322 687.779H285.323V535.419Z" fill="url(#paint7_linear_3738_12063)" fill-opacity="0.2"/>
<path d="M134.752 535.419V533.202H132.534V535.419H134.752ZM285.323 535.419H287.541V533.202H285.323V535.419ZM134.752 686.797L136.968 686.883L136.969 686.84V686.797H134.752ZM156.786 718.519L155.677 720.439L156.786 718.519ZM263.269 718.519L262.16 716.598L263.269 718.519ZM285.322 687.779V685.562H283.105L283.105 687.779L285.322 687.779ZM285.323 687.779V689.997H287.541V687.779H285.323ZM134.752 537.637H285.323V533.202H134.752V537.637ZM136.969 686.797V535.419H132.534V686.797H136.969ZM157.895 716.598C143.175 708.1 136.565 697.217 136.968 686.883L132.536 686.711C132.046 699.278 140.126 711.461 155.677 720.439L157.895 716.598ZM262.16 716.598C247.874 724.846 229.011 729.033 210.027 729.033C191.044 729.033 172.18 724.846 157.895 716.598L155.677 720.439C170.796 729.168 190.472 733.469 210.027 733.469C229.583 733.469 249.259 729.168 264.378 720.439L262.16 716.598ZM283.105 687.779C283.105 697.833 276.458 708.343 262.16 716.598L264.378 720.439C279.484 711.718 287.54 699.976 287.54 687.779L283.105 687.779ZM285.323 685.562H285.322V689.997H285.323V685.562ZM283.105 535.419V687.779H287.541V535.419H283.105Z" fill="#FF6648" mask="url(#path-15-inside-5_3738_12063)"/>
<mask id="path-17-inside-6_3738_12063" fill="white">
<path fill-rule="evenodd" clip-rule="evenodd" d="M220.218 379.023C216.377 370.064 203.676 370.064 199.835 379.023L137.777 523.771C130.284 538.531 136.62 555.135 156.786 566.777C186.19 583.754 233.864 583.754 263.269 566.777C283.444 555.129 289.777 538.515 282.266 523.75L220.218 379.023Z"/>
</mask>
<path fill-rule="evenodd" clip-rule="evenodd" d="M220.218 379.023C216.377 370.064 203.676 370.064 199.835 379.023L137.777 523.771C130.284 538.531 136.62 555.135 156.786 566.777C186.19 583.754 233.864 583.754 263.269 566.777C283.444 555.129 289.777 538.515 282.266 523.75L220.218 379.023Z" fill="white"/>
<path fill-rule="evenodd" clip-rule="evenodd" d="M220.218 379.023C216.377 370.064 203.676 370.064 199.835 379.023L137.777 523.771C130.284 538.531 136.62 555.135 156.786 566.777C186.19 583.754 233.864 583.754 263.269 566.777C283.444 555.129 289.777 538.515 282.266 523.75L220.218 379.023Z" fill="url(#paint8_linear_3738_12063)" fill-opacity="0.2"/>
<path d="M199.835 379.023L201.873 379.897L199.835 379.023ZM220.218 379.023L218.18 379.897L220.218 379.023ZM137.777 523.771L139.755 524.775L139.787 524.711L139.816 524.645L137.777 523.771ZM156.786 566.777L157.895 564.857L156.786 566.777ZM263.269 566.777L264.378 568.698L263.269 566.777ZM282.266 523.75L280.228 524.624L280.257 524.691L280.29 524.756L282.266 523.75ZM201.873 379.897C204.946 372.73 215.107 372.73 218.18 379.897L222.256 378.149C217.647 367.398 202.406 367.398 197.797 378.149L201.873 379.897ZM139.816 524.645L201.873 379.897L197.797 378.149L135.739 522.898L139.816 524.645ZM157.895 564.857C148.101 559.203 141.88 552.466 138.951 545.576C136.044 538.739 136.299 531.583 139.755 524.775L135.8 522.768C131.763 530.72 131.439 539.245 134.869 547.311C138.275 555.323 145.305 562.709 155.677 568.698L157.895 564.857ZM262.16 564.857C247.874 573.105 229.011 577.292 210.027 577.292C191.044 577.292 172.18 573.105 157.895 564.857L155.677 568.698C170.796 577.427 190.472 581.727 210.027 581.727C229.583 581.727 249.259 577.427 264.378 568.698L262.16 564.857ZM280.29 524.756C283.754 531.566 284.013 538.726 281.108 545.566C278.181 552.459 271.958 559.2 262.16 564.857L264.378 568.698C274.755 562.707 281.786 555.316 285.191 547.3C288.618 539.229 288.289 530.699 284.243 522.745L280.29 524.756ZM218.18 379.897L280.228 524.624L284.305 522.876L222.256 378.149L218.18 379.897Z" fill="#FF6648" mask="url(#path-17-inside-6_3738_12063)"/>
<path d="M270.226 785.896C276.443 782.307 281.227 778.446 284.767 774.5V794.2C282.538 795.797 280.166 797.322 277.659 798.77C258.613 809.766 234.118 815.051 210.026 815.051C185.933 815.051 161.438 809.766 142.392 798.77C139.892 797.327 137.527 795.806 135.304 794.214V774.522C138.843 778.461 143.62 782.313 149.825 785.896C166.079 795.28 187.851 800.186 210.026 800.186C232.2 800.186 253.972 795.28 270.226 785.896Z" fill="url(#paint9_linear_3738_12063)" stroke="#FF6648" stroke-width="1.10884"/>
<path d="M270.226 932.972C276.443 929.382 281.227 925.522 284.767 921.576V941.275C282.538 942.872 280.166 944.398 277.659 945.846C258.613 956.842 234.118 962.127 210.026 962.127C185.933 962.127 161.438 956.842 142.392 945.846C139.892 944.402 137.527 942.882 135.304 941.29V921.598C138.843 925.536 143.62 929.389 149.825 932.972C166.079 942.356 187.851 947.261 210.026 947.261C232.2 947.261 253.972 942.356 270.226 932.972Z" fill="url(#paint10_linear_3738_12063)" stroke="#FF6648" stroke-width="1.10884"/>
<path d="M270.226 638.82C276.443 635.231 281.227 631.37 284.767 627.424V647.124C282.538 648.721 280.166 650.247 277.659 651.694C258.613 662.69 234.118 667.976 210.026 667.976C185.933 667.976 161.438 662.69 142.392 651.694C139.892 650.251 137.527 648.73 135.304 647.139V627.447C138.843 631.385 143.62 635.238 149.825 638.82C166.079 648.205 187.851 653.11 210.026 653.11C232.2 653.11 253.972 648.205 270.226 638.82Z" fill="url(#paint11_linear_3738_12063)" stroke="#FF6648" stroke-width="1.10884"/>
<rect x="487.869" y="1449.96" width="23.9636" height="418.1" fill="url(#paint12_linear_3738_12063)"/>
<rect x="533.723" y="1432.15" width="41.4257" height="599.463" fill="url(#paint13_linear_3738_12063)"/>
<mask id="path-24-outside-7_3738_12063" maskUnits="userSpaceOnUse" x="487.707" y="1405.2" width="180" height="806" fill="black">
<rect fill="white" x="487.707" y="1405.2" width="180" height="806"/>
<path d="M490.707 1405.2H664.714V2210.56H490.707V1405.2Z"/>
</mask>
<path d="M490.707 1405.2H664.714V2210.56H490.707V1405.2Z" fill="url(#paint14_linear_3738_12063)"/>
<path d="M662.497 1405.2V2210.56H666.932V1405.2H662.497ZM492.925 2210.56V1405.2H488.489V2210.56H492.925Z" fill="url(#paint15_linear_3738_12063)" mask="url(#path-24-outside-7_3738_12063)"/>
<rect x="200.596" y="1412.56" width="88.7455" height="722.713" fill="url(#paint16_linear_3738_12063)"/>
<rect x="244.969" y="1470.19" width="4.04772" height="456.221" fill="url(#paint17_linear_3738_12063)"/>
<rect x="98.5" y="1367.6" width="88.7455" height="722.713" fill="url(#paint18_linear_3738_12063)"/>
<path fill-rule="evenodd" clip-rule="evenodd" d="M637.169 1293.97H510.795L486.64 1377.98H486.817C481.504 1394.71 490.047 1412.61 512.446 1425.54C548.656 1446.45 607.363 1446.45 643.572 1425.54C665.972 1412.61 674.515 1394.71 669.201 1377.98H669.376L637.169 1293.97Z" fill="#070B19"/>
<mask id="path-30-inside-8_3738_12063" fill="white">
<path fill-rule="evenodd" clip-rule="evenodd" d="M577.711 352.753H242.133V1173.16C241.138 1198.68 257.508 1224.38 291.24 1243.86C356.774 1281.69 463.025 1281.69 528.559 1243.86C561.326 1224.94 577.709 1200.14 577.709 1175.35H577.711V352.753Z"/>
</mask>
<path fill-rule="evenodd" clip-rule="evenodd" d="M577.711 352.753H242.133V1173.16C241.138 1198.68 257.508 1224.38 291.24 1243.86C356.774 1281.69 463.025 1281.69 528.559 1243.86C561.326 1224.94 577.709 1200.14 577.709 1175.35H577.711V352.753Z" fill="url(#paint19_linear_3738_12063)"/>
<path fill-rule="evenodd" clip-rule="evenodd" d="M577.711 352.753H242.133V1173.16C241.138 1198.68 257.508 1224.38 291.24 1243.86C356.774 1281.69 463.025 1281.69 528.559 1243.86C561.326 1224.94 577.709 1200.14 577.709 1175.35H577.711V352.753Z" fill="url(#paint20_linear_3738_12063)" fill-opacity="0.5"/>
<path d="M242.133 352.753V350.535H239.915V352.753H242.133ZM577.711 352.753H579.928V350.535H577.711V352.753ZM242.133 1173.16L244.349 1173.24L244.35 1173.2V1173.16H242.133ZM291.24 1243.86L290.131 1245.78L291.24 1243.86ZM528.559 1243.86L529.668 1245.78L528.559 1243.86ZM577.709 1175.35V1173.13H575.491V1175.35H577.709ZM577.711 1175.35V1177.57H579.928V1175.35H577.711ZM242.133 354.97H577.711V350.535H242.133V354.97ZM244.35 1173.16V352.753H239.915V1173.16H244.35ZM292.349 1241.94C259.032 1222.7 243.398 1197.65 244.349 1173.24L239.917 1173.07C238.879 1199.71 255.983 1226.06 290.131 1245.78L292.349 1241.94ZM527.45 1241.94C495.099 1260.61 452.559 1270.02 409.899 1270.02C367.239 1270.02 324.699 1260.61 292.349 1241.94L290.131 1245.78C323.315 1264.94 366.667 1274.45 409.899 1274.45C453.132 1274.45 496.484 1264.94 529.668 1245.78L527.45 1241.94ZM575.491 1175.35C575.491 1199.07 559.813 1223.25 527.45 1241.94L529.668 1245.78C562.838 1226.63 579.927 1201.22 579.927 1175.35H575.491ZM577.711 1173.13H577.709V1177.57H577.711V1173.13ZM575.493 352.753V1175.35H579.928V352.753H575.493Z" fill="#FF6648" mask="url(#path-30-inside-8_3738_12063)"/>
<mask id="path-32-inside-9_3738_12063" fill="white">
<path fill-rule="evenodd" clip-rule="evenodd" d="M577.711 352.753H242.133V621.009C241.138 646.53 257.508 672.234 291.24 691.709C356.774 729.545 463.025 729.545 528.559 691.709C561.326 672.791 577.709 647.996 577.709 623.201H577.711V352.753Z"/>
</mask>
<path fill-rule="evenodd" clip-rule="evenodd" d="M577.711 352.753H242.133V621.009C241.138 646.53 257.508 672.234 291.24 691.709C356.774 729.545 463.025 729.545 528.559 691.709C561.326 672.791 577.709 647.996 577.709 623.201H577.711V352.753Z" fill="url(#paint21_linear_3738_12063)"/>
<path fill-rule="evenodd" clip-rule="evenodd" d="M577.711 352.753H242.133V621.009C241.138 646.53 257.508 672.234 291.24 691.709C356.774 729.545 463.025 729.545 528.559 691.709C561.326 672.791 577.709 647.996 577.709 623.201H577.711V352.753Z" fill="url(#paint22_linear_3738_12063)" fill-opacity="0.77"/>
<path d="M242.133 352.753V350.535H239.915V352.753H242.133ZM577.711 352.753H579.928V350.535H577.711V352.753ZM242.133 621.009L244.349 621.096L244.35 621.052V621.009H242.133ZM291.24 691.709L290.131 693.63L291.24 691.709ZM528.559 691.709L529.668 693.63L528.559 691.709ZM577.709 623.201V620.984H575.491V623.201H577.709ZM577.711 623.201V625.419H579.928V623.201H577.711ZM242.133 354.97H577.711V350.535H242.133V354.97ZM244.35 621.009V352.753H239.915V621.009H244.35ZM292.349 689.789C259.032 670.553 243.398 645.499 244.349 621.096L239.917 620.923C238.879 647.56 255.983 673.915 290.131 693.63L292.349 689.789ZM527.45 689.789C495.099 708.466 452.559 717.869 409.899 717.869C367.239 717.869 324.699 708.466 292.349 689.789L290.131 693.63C323.315 712.788 366.667 722.304 409.899 722.304C453.132 722.304 496.484 712.788 529.668 693.63L527.45 689.789ZM575.491 623.201C575.491 646.925 559.813 671.104 527.45 689.789L529.668 693.63C562.838 674.479 579.927 649.068 579.927 623.201H575.491ZM577.711 620.984H577.709V625.419H577.711V620.984ZM575.493 352.753V623.201H579.928V352.753H575.493Z" fill="#FF6648" mask="url(#path-32-inside-9_3738_12063)"/>
<mask id="path-34-inside-10_3738_12063" fill="white">
<path fill-rule="evenodd" clip-rule="evenodd" d="M242.166 348.651C242.125 348.651 242.086 348.682 242.09 348.642C242.27 347.012 265.116 142.143 382.626 12.6261C397.352 -3.60462 422.449 -3.60462 437.175 12.6261C554.678 142.136 577.528 346.989 577.711 348.641C577.715 348.682 577.676 348.651 577.634 348.651C577.594 348.651 577.562 348.686 577.565 348.726C579.434 374.844 563.098 401.316 528.559 421.257C463.025 459.093 356.774 459.093 291.24 421.257C256.7 401.316 240.365 374.844 242.234 348.725C242.237 348.685 242.205 348.651 242.166 348.651Z"/>
</mask>
<path fill-rule="evenodd" clip-rule="evenodd" d="M242.166 348.651C242.125 348.651 242.086 348.682 242.09 348.642C242.27 347.012 265.116 142.143 382.626 12.6261C397.352 -3.60462 422.449 -3.60462 437.175 12.6261C554.678 142.136 577.528 346.989 577.711 348.641C577.715 348.682 577.676 348.651 577.634 348.651C577.594 348.651 577.562 348.686 577.565 348.726C579.434 374.844 563.098 401.316 528.559 421.257C463.025 459.093 356.774 459.093 291.24 421.257C256.7 401.316 240.365 374.844 242.234 348.725C242.237 348.685 242.205 348.651 242.166 348.651Z" fill="url(#paint23_linear_3738_12063)"/>
<path fill-rule="evenodd" clip-rule="evenodd" d="M242.166 348.651C242.125 348.651 242.086 348.682 242.09 348.642C242.27 347.012 265.116 142.143 382.626 12.6261C397.352 -3.60462 422.449 -3.60462 437.175 12.6261C554.678 142.136 577.528 346.989 577.711 348.641C577.715 348.682 577.676 348.651 577.634 348.651C577.594 348.651 577.562 348.686 577.565 348.726C579.434 374.844 563.098 401.316 528.559 421.257C463.025 459.093 356.774 459.093 291.24 421.257C256.7 401.316 240.365 374.844 242.234 348.725C242.237 348.685 242.205 348.651 242.166 348.651Z" fill="url(#paint24_linear_3738_12063)"/>
<path d="M382.626 12.6261L380.983 11.1359L382.626 12.6261ZM437.175 12.6261L438.817 11.1359L437.175 12.6261ZM528.559 421.257L529.668 423.178L528.559 421.257ZM291.24 421.257L290.131 423.178L291.24 421.257ZM242.234 348.725L244.446 348.883L242.234 348.725ZM577.565 348.726L579.777 348.568L577.565 348.726ZM577.711 348.641L575.506 348.885L577.711 348.641ZM242.09 348.642L239.886 348.398L242.09 348.642ZM380.983 11.1359C321.913 76.2424 286.703 160.195 266.236 227.95C245.761 295.735 239.985 347.504 239.886 348.398L244.295 348.885C244.376 348.15 250.112 296.669 270.482 229.233C290.861 161.767 325.829 78.5267 384.268 14.1163L380.983 11.1359ZM438.817 11.1359C423.211 -6.06482 396.59 -6.06482 380.983 11.1359L384.268 14.1163C398.114 -1.14442 421.687 -1.14442 435.533 14.1163L438.817 11.1359ZM579.915 348.398C579.815 347.493 574.037 295.722 553.561 227.939C533.094 160.185 497.885 76.2387 438.817 11.1359L435.533 14.1163C493.969 78.523 528.936 161.758 549.315 229.221C569.686 296.656 575.424 348.138 575.506 348.885L579.915 348.398ZM575.353 348.884C577.139 373.849 561.564 399.641 527.45 419.337L529.668 423.178C564.632 402.991 581.728 375.839 579.777 348.568L575.353 348.884ZM527.45 419.337C495.099 438.014 452.559 447.416 409.899 447.416C367.239 447.416 324.699 438.014 292.349 419.337L290.131 423.178C323.315 442.336 366.667 451.852 409.899 451.852C453.132 451.852 496.484 442.336 529.668 423.178L527.45 419.337ZM292.349 419.337C258.234 399.641 242.659 373.848 244.446 348.883L240.022 348.567C238.07 375.839 255.166 402.99 290.131 423.178L292.349 419.337ZM244.446 348.883C244.54 347.565 243.498 346.434 242.166 346.434V350.869C240.913 350.869 239.933 349.806 240.022 348.567L244.446 348.883ZM577.634 346.434C576.302 346.434 575.259 347.565 575.353 348.884L579.777 348.568C579.866 349.806 578.886 350.869 577.634 350.869V346.434ZM575.506 348.885C575.495 348.783 575.358 347.672 576.351 346.905C576.81 346.551 577.283 346.468 577.551 346.45C577.811 346.432 578.012 346.466 578.084 346.479C578.145 346.491 578.381 346.547 578.181 346.499C578.115 346.483 577.905 346.434 577.634 346.434V350.869C577.384 350.869 577.195 350.824 577.147 350.812C576.966 350.769 577.22 350.83 577.295 350.844C577.375 350.859 577.582 350.893 577.847 350.875C578.122 350.857 578.599 350.773 579.062 350.415C580.063 349.642 579.928 348.521 579.915 348.398L575.506 348.885ZM239.886 348.398C239.873 348.519 239.737 349.645 240.743 350.418C241.207 350.776 241.686 350.858 241.96 350.876C242.225 350.893 242.431 350.858 242.511 350.843C242.583 350.83 242.839 350.767 242.656 350.811C242.607 350.823 242.417 350.869 242.166 350.869V346.434C241.894 346.434 241.683 346.483 241.616 346.5C241.414 346.548 241.653 346.491 241.711 346.48C241.783 346.467 241.984 346.433 242.243 346.449C242.511 346.466 242.985 346.548 243.446 346.902C244.444 347.669 244.306 348.785 244.295 348.885L239.886 348.398Z" fill="#FF6648" mask="url(#path-34-inside-10_3738_12063)"/>
<g style="mix-blend-mode:multiply">
<path d="M427.101 947.213L363.464 688.451L354.318 695.805L354.319 1221.44L568.253 1310.64L577.71 1300.66L577.71 1252.8C577.71 1231.67 570.109 1207.1 556.724 1184.97L459.379 1023.99C444.564 999.491 433.464 973.088 427.101 947.213Z" fill="url(#paint25_linear_3738_12063)"/>
</g>
<path d="M617.088 686.19V1276.83" stroke="#FF6648" stroke-width="2.21769"/>
<mask id="path-38-inside-11_3738_12063" fill="white">
<path fill-rule="evenodd" clip-rule="evenodd" d="M642.423 1254.78H504.256L477.847 1346.63H477.949C473.899 1363.99 483.426 1382.2 506.528 1395.53C545.842 1418.23 609.583 1418.23 648.897 1395.53C671.999 1382.2 681.526 1363.99 677.476 1346.63H677.635L677.172 1345.43C676.521 1343.02 675.606 1340.62 674.428 1338.27L642.423 1254.78Z"/>
</mask>
<path fill-rule="evenodd" clip-rule="evenodd" d="M642.423 1254.78H504.256L477.847 1346.63H477.949C473.899 1363.99 483.426 1382.2 506.528 1395.53C545.842 1418.23 609.583 1418.23 648.897 1395.53C671.999 1382.2 681.526 1363.99 677.476 1346.63H677.635L677.172 1345.43C676.521 1343.02 675.606 1340.62 674.428 1338.27L642.423 1254.78Z" fill="white"/>
<path fill-rule="evenodd" clip-rule="evenodd" d="M642.423 1254.78H504.256L477.847 1346.63H477.949C473.899 1363.99 483.426 1382.2 506.528 1395.53C545.842 1418.23 609.583 1418.23 648.897 1395.53C671.999 1382.2 681.526 1363.99 677.476 1346.63H677.635L677.172 1345.43C676.521 1343.02 675.606 1340.62 674.428 1338.27L642.423 1254.78Z" fill="url(#paint26_linear_3738_12063)" fill-opacity="0.4"/>
<path d="M504.256 1254.78V1252.56H502.586L502.125 1254.16L504.256 1254.78ZM642.423 1254.78L644.493 1253.98L643.947 1252.56H642.423V1254.78ZM477.847 1346.63L475.716 1346.02L474.902 1348.85H477.847V1346.63ZM477.949 1346.63L480.109 1347.14L480.744 1344.41H477.949V1346.63ZM506.528 1395.53L507.637 1393.61H507.637L506.528 1395.53ZM648.897 1395.53L650.005 1397.45L648.897 1395.53ZM677.476 1346.63V1344.41H674.681L675.316 1347.14L677.476 1346.63ZM677.635 1346.63V1348.85H680.86L679.705 1345.84L677.635 1346.63ZM677.172 1345.43L675.032 1346.01L675.061 1346.11L675.102 1346.22L677.172 1345.43ZM674.428 1338.27L672.357 1339.06L672.396 1339.16L672.444 1339.26L674.428 1338.27ZM504.256 1256.99H642.423V1252.56H504.256V1256.99ZM479.979 1347.25L506.388 1255.39L502.125 1254.16L475.716 1346.02L479.979 1347.25ZM477.949 1344.41H477.847V1348.85H477.949V1344.41ZM507.637 1393.61C485.014 1380.55 476.364 1363.18 480.109 1347.14L475.789 1346.13C471.434 1364.79 481.838 1383.84 505.42 1397.45L507.637 1393.61ZM647.788 1393.61C628.547 1404.72 603.19 1410.34 577.712 1410.34C552.235 1410.34 526.878 1404.72 507.637 1393.61L505.42 1397.45C525.493 1409.04 551.663 1414.77 577.712 1414.77C603.762 1414.77 629.932 1409.04 650.005 1397.45L647.788 1393.61ZM675.316 1347.14C679.061 1363.18 670.411 1380.55 647.788 1393.61L650.005 1397.45C673.587 1383.84 683.99 1364.79 679.636 1346.13L675.316 1347.14ZM677.635 1344.41H677.476V1348.85H677.635V1344.41ZM675.102 1346.22L675.564 1347.43L679.705 1345.84L679.243 1344.63L675.102 1346.22ZM672.444 1339.26C673.559 1341.49 674.42 1343.74 675.032 1346.01L679.313 1344.85C678.622 1342.29 677.653 1339.76 676.412 1337.28L672.444 1339.26ZM640.352 1255.57L672.357 1339.06L676.499 1337.47L644.493 1253.98L640.352 1255.57Z" fill="#FF6648" mask="url(#path-38-inside-11_3738_12063)"/>
<mask id="path-40-inside-12_3738_12063" fill="white">
<path fill-rule="evenodd" clip-rule="evenodd" d="M647.214 952.541H496.642V1241C496.197 1252.45 503.541 1263.98 518.676 1272.72C548.081 1289.69 595.755 1289.69 625.16 1272.72C639.862 1264.23 647.213 1253.1 647.213 1241.98H647.214V952.541Z"/>
</mask>
<path fill-rule="evenodd" clip-rule="evenodd" d="M647.214 952.541H496.642V1241C496.197 1252.45 503.541 1263.98 518.676 1272.72C548.081 1289.69 595.755 1289.69 625.16 1272.72C639.862 1264.23 647.213 1253.1 647.213 1241.98H647.214V952.541Z" fill="white"/>
<path fill-rule="evenodd" clip-rule="evenodd" d="M647.214 952.541H496.642V1241C496.197 1252.45 503.541 1263.98 518.676 1272.72C548.081 1289.69 595.755 1289.69 625.16 1272.72C639.862 1264.23 647.213 1253.1 647.213 1241.98H647.214V952.541Z" fill="url(#paint27_linear_3738_12063)" fill-opacity="0.2"/>
<path d="M496.642 952.541V950.324H494.424V952.541H496.642ZM647.214 952.541H649.431V950.324H647.214V952.541ZM496.642 1241L498.858 1241.08L498.86 1241.04V1241H496.642ZM518.676 1272.72L517.568 1274.64H517.568L518.676 1272.72ZM625.16 1272.72L626.268 1274.64L625.16 1272.72ZM647.213 1241.98V1239.76H644.995L644.995 1241.98L647.213 1241.98ZM647.214 1241.98V1244.2H649.431V1241.98H647.214ZM496.642 954.759H647.214V950.324H496.642V954.759ZM498.86 1241V952.541H494.424V1241H498.86ZM519.785 1270.8C505.066 1262.3 498.456 1251.42 498.858 1241.08L494.426 1240.91C493.937 1253.48 502.017 1265.66 517.568 1274.64L519.785 1270.8ZM624.051 1270.8C609.765 1279.04 590.902 1283.23 571.918 1283.23C552.934 1283.23 534.071 1279.04 519.785 1270.8L517.568 1274.64C532.686 1283.37 552.362 1287.67 571.918 1287.67C591.474 1287.67 611.15 1283.37 626.268 1274.64L624.051 1270.8ZM644.995 1241.98C644.995 1252.03 638.349 1262.54 624.051 1270.8L626.268 1274.64C641.375 1265.92 649.431 1254.18 649.431 1241.98L644.995 1241.98ZM647.214 1239.76H647.213V1244.2H647.214V1239.76ZM644.996 952.541V1241.98H649.431V952.541H644.996Z" fill="#FF6648" mask="url(#path-40-inside-12_3738_12063)"/>
<circle r="60.3692" transform="matrix(0.866025 0.5 -0.866025 0.5 571.92 952.541)" fill="white" stroke="#FF6648" stroke-width="2.21769"/>
<mask id="path-43-inside-13_3738_12063" fill="white">
<path fill-rule="evenodd" clip-rule="evenodd" d="M647.216 804.845H496.644V956.223C496.198 967.673 503.543 979.206 518.678 987.945C548.083 1004.92 595.757 1004.92 625.161 987.945C639.864 979.456 647.215 968.331 647.215 957.205H647.216V804.845Z"/>
</mask>
<path fill-rule="evenodd" clip-rule="evenodd" d="M647.216 804.845H496.644V956.223C496.198 967.673 503.543 979.206 518.678 987.945C548.083 1004.92 595.757 1004.92 625.161 987.945C639.864 979.456 647.215 968.331 647.215 957.205H647.216V804.845Z" fill="white"/>
<path fill-rule="evenodd" clip-rule="evenodd" d="M647.216 804.845H496.644V956.223C496.198 967.673 503.543 979.206 518.678 987.945C548.083 1004.92 595.757 1004.92 625.161 987.945C639.864 979.456 647.215 968.331 647.215 957.205H647.216V804.845Z" fill="url(#paint28_linear_3738_12063)" fill-opacity="0.2"/>
<path d="M496.644 804.845V802.628H494.426V804.845H496.644ZM647.216 804.845H649.433V802.628H647.216V804.845ZM496.644 956.223L498.86 956.309L498.862 956.266V956.223H496.644ZM518.678 987.945L519.787 986.024L518.678 987.945ZM625.161 987.945L626.27 989.865L625.161 987.945ZM647.215 957.205V954.988H644.997L644.997 957.205L647.215 957.205ZM647.216 957.205V959.423H649.433V957.205H647.216ZM496.644 807.063H647.216V802.628H496.644V807.063ZM498.862 956.223V804.845H494.426V956.223H498.862ZM519.787 986.024C505.068 977.526 498.458 966.643 498.86 956.309L494.428 956.137C493.939 968.704 502.019 980.887 517.57 989.865L519.787 986.024ZM624.053 986.024C609.767 994.272 590.903 998.459 571.92 998.459C552.936 998.459 534.073 994.272 519.787 986.024L517.57 989.865C532.688 998.594 552.364 1002.89 571.92 1002.89C591.476 1002.89 611.152 998.594 626.27 989.865L624.053 986.024ZM644.997 957.205C644.997 967.259 638.351 977.769 624.053 986.024L626.27 989.865C641.377 981.144 649.433 969.402 649.433 957.205L644.997 957.205ZM647.216 954.988H647.215V959.423H647.216V954.988ZM644.998 804.845V957.205H649.433V804.845H644.998Z" fill="#FF6648" mask="url(#path-43-inside-13_3738_12063)"/>
<circle r="60.3692" transform="matrix(0.866025 0.5 -0.866025 0.5 571.92 805.463)" fill="white" stroke="#FF6648" stroke-width="2.21769"/>
<mask id="path-46-inside-14_3738_12063" fill="white">
<path fill-rule="evenodd" clip-rule="evenodd" d="M647.218 653.468H496.646V804.845C496.2 816.296 503.545 827.829 518.68 836.567C548.085 853.544 595.759 853.544 625.163 836.567C639.866 828.079 647.217 816.953 647.217 805.828H647.218V653.468Z"/>
</mask>
<path fill-rule="evenodd" clip-rule="evenodd" d="M647.218 653.468H496.646V804.845C496.2 816.296 503.545 827.829 518.68 836.567C548.085 853.544 595.759 853.544 625.163 836.567C639.866 828.079 647.217 816.953 647.217 805.828H647.218V653.468Z" fill="white"/>
<path fill-rule="evenodd" clip-rule="evenodd" d="M647.218 653.468H496.646V804.845C496.2 816.296 503.545 827.829 518.68 836.567C548.085 853.544 595.759 853.544 625.163 836.567C639.866 828.079 647.217 816.953 647.217 805.828H647.218V653.468Z" fill="url(#paint29_linear_3738_12063)" fill-opacity="0.2"/>
<path d="M496.646 653.468V651.25H494.428V653.468H496.646ZM647.218 653.468H649.435V651.25H647.218V653.468ZM496.646 804.845L498.862 804.932L498.864 804.888V804.845H496.646ZM518.68 836.567L519.789 834.646L518.68 836.567ZM625.163 836.567L626.272 838.488L625.163 836.567ZM647.217 805.828V803.61H644.999L644.999 805.828L647.217 805.828ZM647.218 805.828V808.046H649.435V805.828H647.218ZM496.646 655.686H647.218V651.25H496.646V655.686ZM498.864 804.845V653.468H494.428V804.845H498.864ZM519.789 834.646C505.069 826.148 498.46 815.265 498.862 804.932L494.43 804.759C493.941 817.327 502.021 829.509 517.571 838.488L519.789 834.646ZM624.055 834.646C609.769 842.894 590.905 847.082 571.922 847.082C552.938 847.082 534.075 842.894 519.789 834.646L517.571 838.488C532.69 847.216 552.366 851.517 571.922 851.517C591.478 851.517 611.154 847.216 626.272 838.488L624.055 834.646ZM644.999 805.828C644.999 815.882 638.353 826.391 624.055 834.646L626.272 838.488C641.379 829.766 649.435 818.025 649.435 805.828L644.999 805.828ZM647.218 803.61H647.217V808.046H647.218V803.61ZM645 653.468V805.828H649.435V653.468H645Z" fill="#FF6648" mask="url(#path-46-inside-14_3738_12063)"/>
<mask id="path-48-inside-15_3738_12063" fill="white">
<path fill-rule="evenodd" clip-rule="evenodd" d="M582.112 497.071C578.271 488.113 565.571 488.113 561.73 497.071L499.672 641.82C492.179 656.58 498.515 673.183 518.68 684.826C548.085 701.803 595.759 701.803 625.163 684.826C645.339 673.178 651.671 656.564 644.161 641.799L582.112 497.071Z"/>
</mask>
<path fill-rule="evenodd" clip-rule="evenodd" d="M582.112 497.071C578.271 488.113 565.571 488.113 561.73 497.071L499.672 641.82C492.179 656.58 498.515 673.183 518.68 684.826C548.085 701.803 595.759 701.803 625.163 684.826C645.339 673.178 651.671 656.564 644.161 641.799L582.112 497.071Z" fill="white"/>
<path fill-rule="evenodd" clip-rule="evenodd" d="M582.112 497.071C578.271 488.113 565.571 488.113 561.73 497.071L499.672 641.82C492.179 656.58 498.515 673.183 518.68 684.826C548.085 701.803 595.759 701.803 625.163 684.826C645.339 673.178 651.671 656.564 644.161 641.799L582.112 497.071Z" fill="url(#paint30_linear_3738_12063)" fill-opacity="0.2"/>
<path d="M561.73 497.071L563.768 497.945L561.73 497.071ZM582.112 497.071L584.151 496.198V496.198L582.112 497.071ZM499.672 641.82L501.65 642.824L501.682 642.76L501.71 642.694L499.672 641.82ZM518.68 684.826L517.571 686.746L518.68 684.826ZM625.163 684.826L624.055 682.905L625.163 684.826ZM644.161 641.799L642.123 642.673L642.151 642.739L642.184 642.804L644.161 641.799ZM563.768 497.945C566.841 490.778 577.001 490.778 580.074 497.945L584.151 496.198C579.542 485.447 564.301 485.447 559.691 496.198L563.768 497.945ZM501.71 642.694L563.768 497.945L559.691 496.198L497.634 640.946L501.71 642.694ZM519.789 682.905C509.996 677.251 503.775 670.514 500.845 663.624C497.938 656.788 498.193 649.632 501.65 642.824L497.695 640.816C493.658 648.768 493.334 657.294 496.763 665.36C500.17 673.372 507.199 680.758 517.571 686.746L519.789 682.905ZM624.055 682.905C609.769 691.153 590.905 695.341 571.922 695.341C552.938 695.341 534.075 691.153 519.789 682.905L517.571 686.746C532.69 695.475 552.366 699.776 571.922 699.776C591.478 699.776 611.154 695.475 626.272 686.746L624.055 682.905ZM642.184 642.804C645.648 649.615 645.908 656.775 643.003 663.614C640.075 670.508 633.853 677.248 624.055 682.905L626.272 686.746C636.649 680.755 643.681 673.365 647.085 665.348C650.513 657.278 650.184 648.748 646.138 640.793L642.184 642.804ZM580.074 497.945L642.123 642.673L646.199 640.925L584.151 496.198L580.074 497.945Z" fill="#FF6648" mask="url(#path-48-inside-15_3738_12063)"/>
<path d="M632.121 903.944C638.338 900.355 643.121 896.494 646.662 892.548V912.248C644.433 913.845 642.061 915.371 639.554 916.818C620.508 927.815 596.013 933.1 571.92 933.1C547.828 933.1 523.333 927.815 504.287 916.818C501.787 915.375 499.422 913.854 497.199 912.263V892.571C500.737 896.509 505.514 900.362 511.719 903.944C527.974 913.329 549.746 918.234 571.92 918.234C594.095 918.234 615.866 913.329 632.121 903.944Z" fill="url(#paint31_linear_3738_12063)" stroke="#FF6648" stroke-width="1.10884"/>
<path d="M632.121 1051.02C638.338 1047.43 643.121 1043.57 646.662 1039.62V1059.32C644.433 1060.92 642.061 1062.45 639.554 1063.89C620.508 1074.89 596.013 1080.18 571.92 1080.18C547.828 1080.18 523.333 1074.89 504.287 1063.89C501.787 1062.45 499.422 1060.93 497.199 1059.34V1039.65C500.737 1043.58 505.514 1047.44 511.719 1051.02C527.974 1060.4 549.746 1065.31 571.92 1065.31C594.095 1065.31 615.866 1060.4 632.121 1051.02Z" fill="url(#paint32_linear_3738_12063)" stroke="#FF6648" stroke-width="1.10884"/>
<path d="M632.121 756.869C638.338 753.279 643.121 749.419 646.662 745.473V765.173C644.433 766.77 642.061 768.295 639.554 769.743C620.508 780.739 596.013 786.024 571.92 786.024C547.828 786.024 523.333 780.739 504.287 769.743C501.787 768.3 499.422 766.779 497.199 765.187V745.495C500.737 749.434 505.514 753.286 511.719 756.869C527.974 766.253 549.746 771.159 571.92 771.159C594.095 771.159 615.866 766.253 632.121 756.869Z" fill="url(#paint33_linear_3738_12063)" stroke="#FF6648" stroke-width="1.10884"/>
<rect x="172.9" y="1412.56" width="3.29513" height="576.394" fill="url(#paint34_linear_3738_12063)"/>
<mask id="path-54-inside-16_3738_12063" fill="white">
<path fill-rule="evenodd" clip-rule="evenodd" d="M149.59 1228.9C119.632 1228.9 95.3455 1253.18 95.3455 1283.14V1366.49C95.0278 1376.46 100.32 1386.5 111.222 1394.11C132.409 1408.9 166.759 1408.9 187.945 1394.11C198.538 1386.72 203.835 1377.03 203.835 1367.34H203.835V1283.14C203.835 1253.18 179.549 1228.9 149.59 1228.9Z"/>
</mask>
<path fill-rule="evenodd" clip-rule="evenodd" d="M149.59 1228.9C119.632 1228.9 95.3455 1253.18 95.3455 1283.14V1366.49C95.0278 1376.46 100.32 1386.5 111.222 1394.11C132.409 1408.9 166.759 1408.9 187.945 1394.11C198.538 1386.72 203.835 1377.03 203.835 1367.34H203.835V1283.14C203.835 1253.18 179.549 1228.9 149.59 1228.9Z" fill="url(#paint35_linear_3738_12063)"/>
<path fill-rule="evenodd" clip-rule="evenodd" d="M149.59 1228.9C119.632 1228.9 95.3455 1253.18 95.3455 1283.14V1366.49C95.0278 1376.46 100.32 1386.5 111.222 1394.11C132.409 1408.9 166.759 1408.9 187.945 1394.11C198.538 1386.72 203.835 1377.03 203.835 1367.34H203.835V1283.14C203.835 1253.18 179.549 1228.9 149.59 1228.9Z" fill="url(#paint36_linear_3738_12063)" fill-opacity="0.2"/>
<path d="M95.3455 1366.49L97.2024 1366.55L97.2033 1366.52V1366.49H95.3455ZM111.222 1394.11L112.285 1392.59H112.285L111.222 1394.11ZM187.945 1394.11L189.008 1395.64L187.945 1394.11ZM203.835 1367.34V1365.48H201.977L201.977 1367.34L203.835 1367.34ZM203.835 1367.34V1369.2H205.693V1367.34H203.835ZM97.2033 1283.14C97.2033 1254.21 120.658 1230.76 149.59 1230.76V1227.04C118.606 1227.04 93.4877 1252.16 93.4877 1283.14H97.2033ZM97.2033 1366.49V1283.14H93.4877V1366.49H97.2033ZM112.285 1392.59C101.784 1385.26 96.9088 1375.77 97.2024 1366.55L93.4887 1366.43C93.1469 1377.16 98.8557 1387.75 110.159 1395.64L112.285 1392.59ZM186.882 1392.59C176.659 1399.72 163.166 1403.34 149.584 1403.34C136.001 1403.34 122.508 1399.72 112.285 1392.59L110.159 1395.64C121.123 1403.29 135.398 1407.06 149.584 1407.06C163.77 1407.06 178.045 1403.29 189.008 1395.64L186.882 1392.59ZM201.977 1367.34C201.977 1376.3 197.086 1385.47 186.882 1392.59L189.008 1395.64C199.99 1387.97 205.693 1377.76 205.693 1367.34L201.977 1367.34ZM203.835 1365.48H203.835V1369.2H203.835V1365.48ZM201.978 1283.14V1367.34H205.693V1283.14H201.978ZM149.59 1230.76C178.523 1230.76 201.978 1254.21 201.978 1283.14H205.693C205.693 1252.16 180.575 1227.04 149.59 1227.04V1230.76Z" fill="#FF6648" mask="url(#path-54-inside-16_3738_12063)"/>
<path d="M199.383 966.215L272.67 710.775L272.67 1328.29L49.2786 1148.11L49.2786 1101.7C49.2786 1080.57 56.8796 1064.78 70.2648 1058.1L165.59 1010.53C181.683 1002.5 193.369 987.178 199.383 966.215Z" fill="url(#paint37_linear_3738_12063)" stroke="#FF6648" stroke-width="1.85778"/>
<path fill-rule="evenodd" clip-rule="evenodd" d="M49.2783 1095.22L272.67 1224.19L272.67 1243.7L169.768 1180.34L169.768 1245.2L165.367 1241.67L165.367 1177.63L49.2783 1106.16L49.2783 1095.22Z" fill="black"/>
<path d="M267.862 727.531L198.544 969.138C193.078 988.189 182.459 1002.12 167.834 1009.41L68.3504 1059.06C56.1862 1065.13 49.2786 1079.48 49.2786 1098.68L49.2786 1148.11L52.9464 1151.07L52.9464 1104.39L71.3722 1069.29L202.04 1013.5L272.67 715.307L272.67 715.247L267.862 727.531Z" fill="url(#paint38_linear_3738_12063)" stroke="#FF6648" stroke-width="1.10884"/>
<path d="M433.536 1049.61L359.771 713.694L350.625 721.047L360.33 1326.63L574.265 1415.83L583.722 1405.85L583.722 1357.99C583.722 1336.86 576.121 1312.3 562.735 1290.16L467.139 1132.07C451.217 1105.74 439.606 1077.25 433.536 1049.61Z" fill="url(#paint39_linear_3738_12063)" stroke="url(#paint40_linear_3738_12063)" stroke-width="1.85778"/>
<path d="M424.154 1060.62L350.867 720.555L350.867 1338.07L574.258 1415.84L574.258 1369.43C574.258 1348.3 566.657 1323.73 553.272 1301.6L457.947 1143.96C441.854 1117.35 430.169 1088.53 424.154 1060.62Z" fill="url(#paint41_linear_3738_12063)" stroke="#FF6648" stroke-width="1.85778"/>
<path fill-rule="evenodd" clip-rule="evenodd" d="M574.259 1362.94L350.867 1233.97L350.867 1253.48L453.769 1308.94L453.769 1373.8L458.17 1375.35L458.17 1311.31L574.259 1373.89L574.259 1362.94Z" fill="black"/>
<path d="M355.675 742.863L424.993 1064.51C430.459 1089.87 441.078 1116.06 455.703 1140.25L555.187 1304.77C567.351 1324.88 574.258 1347.21 574.258 1366.41L574.258 1415.84L570.591 1414.56L570.591 1367.89L552.165 1311.51L421.497 1104.83L350.867 725.088L350.867 725.027L355.675 742.863Z" fill="black"/>
<mask id="path-63-inside-17_3738_12063" fill="white">
<path fill-rule="evenodd" clip-rule="evenodd" d="M369.731 802.783H149.87V1340.29C149.221 1357.01 159.946 1373.85 182.044 1386.61C224.98 1411.4 294.592 1411.4 337.528 1386.61C358.996 1374.21 369.73 1357.97 369.73 1341.72H369.731V802.783Z"/>
</mask>
<path fill-rule="evenodd" clip-rule="evenodd" d="M369.731 802.783H149.87V1340.29C149.221 1357.01 159.946 1373.85 182.044 1386.61C224.98 1411.4 294.592 1411.4 337.528 1386.61C358.996 1374.21 369.73 1357.97 369.73 1341.72H369.731V802.783Z" fill="url(#paint42_linear_3738_12063)"/>
<path fill-rule="evenodd" clip-rule="evenodd" d="M369.731 802.783H149.87V1340.29C149.221 1357.01 159.946 1373.85 182.044 1386.61C224.98 1411.4 294.592 1411.4 337.528 1386.61C358.996 1374.21 369.73 1357.97 369.73 1341.72H369.731V802.783Z" fill="url(#paint43_linear_3738_12063)" fill-opacity="0.2"/>
<path d="M149.87 802.783V800.925H148.012V802.783H149.87ZM369.731 802.783H371.589V800.925H369.731V802.783ZM149.87 1340.29L151.726 1340.37L151.727 1340.33V1340.29H149.87ZM182.044 1386.61L182.973 1385L182.044 1386.61ZM337.528 1386.61L336.599 1385L337.528 1386.61ZM369.73 1341.72V1339.87H367.872L367.872 1341.72H369.73ZM369.731 1341.72V1343.58H371.589V1341.72H369.731ZM149.87 804.64H369.731V800.925H149.87V804.64ZM151.727 1340.29V802.783H148.012V1340.29H151.727ZM182.973 1385C161.223 1372.44 151.114 1356.15 151.726 1340.37L148.013 1340.22C147.328 1357.88 158.669 1375.26 181.115 1388.22L182.973 1385ZM336.599 1385C315.48 1397.19 287.683 1403.34 259.786 1403.34C231.888 1403.34 204.092 1397.19 182.973 1385L181.115 1388.22C202.932 1400.81 231.409 1407.06 259.786 1407.06C288.163 1407.06 316.64 1400.81 338.457 1388.22L336.599 1385ZM367.872 1341.72C367.872 1357.07 357.729 1372.8 336.599 1385L338.457 1388.22C360.263 1375.63 371.588 1358.87 371.588 1341.72H367.872ZM369.731 1339.87H369.73V1343.58H369.731V1339.87ZM367.873 802.783V1341.72H371.589V802.783H367.873Z" fill="#FF6648" mask="url(#path-63-inside-17_3738_12063)"/>
<path d="M150.801 1011C150.801 1030.06 163.382 1047.3 184.534 1059.51C205.736 1071.75 232.968 1077.62 259.721 1077.62C272.941 1077.62 286.277 1076.19 298.944 1073.26" stroke="#FF6648" stroke-width="1.85778"/>
<path d="M150.801 905.387C150.801 924.446 163.382 941.689 184.534 953.901C205.736 966.142 232.968 972.009 259.721 972.009C272.893 972.009 286.181 970.587 298.809 967.682" stroke="#FF6648" stroke-width="1.85778"/>
<path d="M150.801 1116.6C150.801 1135.66 163.382 1152.91 184.534 1165.12C205.736 1177.36 232.968 1183.23 259.721 1183.23C272.966 1183.23 286.328 1181.79 299.018 1178.85" stroke="#FF6648" stroke-width="1.85778"/>
<path d="M150.801 1222.21C150.801 1241.27 163.382 1258.51 184.534 1270.73C205.736 1282.97 232.968 1288.84 259.721 1288.84C272.93 1288.84 286.255 1287.4 298.914 1284.48" stroke="#FF6648" stroke-width="1.85778"/>
<path d="M187.246 849.597L187.246 1388.78" stroke="#FF6648" stroke-width="1.85778"/>
<path d="M298.865 859.408V1286.48" stroke="#FF6648" stroke-width="1.85778"/>
<path d="M0.861332 1567.62L0.861331 1521.69C0.861331 1517.76 2.51908 1513.12 5.30465 1509.25L145.707 1314.21C148.764 1309.97 152.082 1306.03 155.58 1302.49L180.761 1277.02L189.803 1278.68L189.803 1384.62L138.509 1448.65L10.264 1574.31L2.1439 1570.28C1.32596 1569.87 0.861332 1568.91 0.861332 1567.62Z" fill="url(#paint44_linear_3738_12063)" stroke="#FF6648" stroke-width="1.85778"/>
<path d="M8.67766 1571.6L8.67781 1527.58C8.67783 1523.65 10.3356 1519 13.1211 1515.13L154.987 1318.06C157.077 1315.16 159.29 1312.4 161.602 1309.81L189.711 1278.31L189.711 1390.82L146.325 1454.53L13.7659 1573.14C11.2054 1575.43 8.67765 1574.66 8.67766 1571.6Z" fill="url(#paint45_linear_3738_12063)" stroke="#FF6648" stroke-width="1.85778" stroke-linejoin="round"/>
<path d="M146.077 1454.57L146.077 1384.21L32.8418 1525.29L32.8418 1556.16" stroke="#FF6648" stroke-width="1.85778"/>
<path d="M33.6462 1530.15L33.6462 1524.58L145.74 1385.74L145.74 1404.56L33.6462 1530.15Z" fill="black" stroke="#FF6648" stroke-width="1.85778"/>
<mask id="path-75-inside-18_3738_12063" fill="white">
<path fill-rule="evenodd" clip-rule="evenodd" d="M311.891 552.344C302.792 541.155 285.276 538.052 275.033 548.205C237.966 584.948 193.612 648.767 168.892 686.055C156.218 705.173 149.844 727.644 149.844 750.582V802.423C149.684 818.788 160.417 835.182 182.044 847.668C224.98 872.457 294.592 872.457 337.528 847.668C358.993 835.275 369.727 819.032 369.73 802.79H369.733V725.346C369.733 662.083 351.804 601.428 311.891 552.344Z"/>
</mask>
<path fill-rule="evenodd" clip-rule="evenodd" d="M311.891 552.344C302.792 541.155 285.276 538.052 275.033 548.205C237.966 584.948 193.612 648.767 168.892 686.055C156.218 705.173 149.844 727.644 149.844 750.582V802.423C149.684 818.788 160.417 835.182 182.044 847.668C224.98 872.457 294.592 872.457 337.528 847.668C358.993 835.275 369.727 819.032 369.73 802.79H369.733V725.346C369.733 662.083 351.804 601.428 311.891 552.344Z" fill="url(#paint46_linear_3738_12063)"/>
<path fill-rule="evenodd" clip-rule="evenodd" d="M311.891 552.344C302.792 541.155 285.276 538.052 275.033 548.205C237.966 584.948 193.612 648.767 168.892 686.055C156.218 705.173 149.844 727.644 149.844 750.582V802.423C149.684 818.788 160.417 835.182 182.044 847.668C224.98 872.457 294.592 872.457 337.528 847.668C358.993 835.275 369.727 819.032 369.73 802.79H369.733V725.346C369.733 662.083 351.804 601.428 311.891 552.344Z" fill="url(#paint47_linear_3738_12063)" fill-opacity="0.2"/>
<path d="M275.033 548.205L276.341 549.525V549.525L275.033 548.205ZM311.891 552.344L313.332 551.172V551.172L311.891 552.344ZM168.892 686.055L167.344 685.028L168.892 686.055ZM149.844 802.423L151.701 802.442L151.701 802.432V802.423H149.844ZM182.044 847.668L181.115 849.276H181.115L182.044 847.668ZM337.528 847.668L338.457 849.276L337.528 847.668ZM369.73 802.79V800.932H367.873L367.872 802.789L369.73 802.79ZM369.733 802.79V804.647H371.591V802.79H369.733ZM276.341 549.525C285.605 540.342 301.854 542.945 310.45 553.516L313.332 551.172C303.731 539.364 284.947 535.763 273.725 546.886L276.341 549.525ZM170.441 687.081C195.169 649.781 239.428 586.115 276.341 549.525L273.725 546.886C236.505 583.78 192.055 647.754 167.344 685.028L170.441 687.081ZM151.701 750.582C151.701 727.987 157.98 705.877 170.441 687.081L167.344 685.028C154.456 704.469 147.986 727.301 147.986 750.582H151.701ZM151.701 802.423V750.582H147.986V802.423H151.701ZM182.973 846.059C161.687 833.769 151.551 817.899 151.701 802.442L147.986 802.405C147.817 819.677 159.148 836.594 181.115 849.276L182.973 846.059ZM336.599 846.059C315.48 858.252 287.683 864.401 259.786 864.401C231.888 864.401 204.092 858.252 182.973 846.059L181.115 849.276C202.932 861.872 231.409 868.117 259.786 868.117C288.163 868.117 316.64 861.872 338.457 849.276L336.599 846.059ZM367.872 802.789C367.87 818.135 357.726 833.861 336.599 846.059L338.457 849.276C360.26 836.688 371.585 819.93 371.588 802.79L367.872 802.789ZM369.733 800.932H369.73V804.647H369.733V800.932ZM367.875 725.346V802.79H371.591V725.346H367.875ZM310.45 553.516C350.049 602.214 367.875 662.434 367.875 725.346H371.591C371.591 661.732 353.559 600.642 313.332 551.172L310.45 553.516Z" fill="#FF6648" mask="url(#path-75-inside-18_3738_12063)"/>
<path d="M122.665 1096.91L118.988 1094.78L118.988 1099.03L122.665 1101.15L122.665 1096.91Z" fill="#FF6648"/>
<path d="M108.099 1071.68L104.422 1069.55L104.422 1073.8L108.099 1075.92L108.099 1071.68Z" fill="#FF6648"/>
<path d="M137.23 1122.14L133.553 1120.01L133.553 1124.26L137.23 1126.38L137.23 1122.14Z" fill="#FF6648"/>
<path d="M126.271 1090.66L118.988 1086.46L118.988 1090.62L126.271 1094.82L126.271 1103.23L129.948 1105.36L129.948 1096.87C129.948 1094.58 128.322 1091.84 126.413 1090.74L126.271 1090.66Z" fill="#FF6648"/>
<path d="M129.877 1109.48C127.897 1108.34 126.342 1109.32 126.342 1111.52L126.342 1111.6L126.342 1120.01L130.019 1122.14L130.019 1113.81L137.302 1118.01L137.302 1113.77L129.877 1109.48Z" fill="#FF6648"/>
<path d="M111.705 1073.76L111.705 1082.17L104.422 1077.96L104.422 1082.21L111.776 1086.46C113.755 1087.6 115.311 1086.62 115.311 1084.41L115.311 1084.33L115.311 1075.84L111.705 1073.76Z" fill="#FF6648"/>
<path d="M115.382 1101.11L115.382 1092.7L111.705 1090.58L111.705 1099.07C111.705 1101.36 113.331 1104.09 115.241 1105.19L115.311 1105.23L122.594 1109.44L122.594 1105.19L115.382 1101.03L115.382 1101.11Z" fill="#FF6648"/>
<path d="M108.099 1105.32L108.099 1088.5L104.422 1086.37L104.422 1103.28C104.422 1105.56 106.048 1108.3 107.957 1109.4L108.028 1109.44L122.594 1117.85L122.594 1113.6L108.099 1105.23L108.099 1105.32Z" fill="#FF6648"/>
<path d="M133.554 1086.37L118.988 1077.96L118.988 1082.21L133.554 1090.62L133.554 1107.44L137.231 1109.56L137.231 1092.58C137.231 1090.29 135.605 1087.56 133.696 1086.46L133.554 1086.37Z" fill="#FF6648"/>
<path d="M414.926 1270.87L414.926 1214.36C414.926 1213.42 414.268 1212.28 413.456 1211.81L409.911 1209.77C409.098 1209.3 408.44 1208.16 408.44 1207.22L408.44 1183.71" stroke="#FF6648" stroke-width="1.40809"/>
<rect x="-0.457291" y="-0.792051" width="7.39247" height="7.39247" transform="matrix(-0.866025 -0.5 5.85628e-09 -1 411.026 1183.89)" fill="#FF6648" stroke="#FF6648" stroke-width="1.05607"/>
<path d="M462.251 1298.19L462.251 1241.68C462.251 1240.74 462.91 1240.36 463.722 1240.83L467.267 1242.88C468.079 1243.35 468.738 1242.97 468.738 1242.03L468.738 1218.52" stroke="#FF6648" stroke-width="1.40809"/>
<rect x="0.457291" y="-0.264017" width="7.39247" height="7.39247" transform="matrix(0.866025 0.5 8.15665e-08 -1 465.362 1215.79)" fill="#FF6648" stroke="#FF6648" stroke-width="1.05607"/>
<path d="M425.031 1203.58L425.031 1277.13" stroke="#FF6648" stroke-width="1.40809"/>
<rect x="-0.457291" y="-0.792051" width="7.39247" height="7.39247" transform="matrix(-0.866025 -0.5 5.85628e-09 -1 427.862 1204.17)" fill="#FF6648" stroke="#FF6648" stroke-width="1.05607"/>
<path d="M451.917 1219.1L451.918 1292.28" stroke="#FF6648" stroke-width="1.40809"/>
<rect x="-0.457291" y="-0.792051" width="7.39247" height="7.39247" transform="matrix(-0.866025 -0.5 5.85628e-09 -1 454.69 1219.65)" fill="#FF6648" stroke="#FF6648" stroke-width="1.05607"/>
<path d="M438.007 1225.85L438.007 1284.48" stroke="#FF6648" stroke-width="1.40809"/>
<rect x="-0.457291" y="-0.792051" width="7.39247" height="7.39247" transform="matrix(-0.866025 -0.5 5.85628e-09 -1 441.276 1226.69)" fill="#FF6648" stroke="#FF6648" stroke-width="1.05607"/>
<mask id="path-96-inside-19_3738_12063" fill="white">
<path fill-rule="evenodd" clip-rule="evenodd" d="M248.139 577.713C257.252 566.854 266.311 556.79 274.973 548.205C285.215 538.052 302.732 541.154 311.831 552.344C318.972 561.126 325.41 570.279 331.167 579.751C319.856 586.365 306.112 590.242 291.292 590.242C275.008 590.242 260.024 585.561 248.139 577.713Z"/>
</mask>
<path fill-rule="evenodd" clip-rule="evenodd" d="M248.139 577.713C257.252 566.854 266.311 556.79 274.973 548.205C285.215 538.052 302.732 541.154 311.831 552.344C318.972 561.126 325.41 570.279 331.167 579.751C319.856 586.365 306.112 590.242 291.292 590.242C275.008 590.242 260.024 585.561 248.139 577.713Z" fill="url(#paint48_linear_3738_12063)"/>
<path d="M274.973 548.205L273.665 546.886V546.886L274.973 548.205ZM248.139 577.713L246.716 576.518L245.376 578.114L247.115 579.263L248.139 577.713ZM311.831 552.344L313.272 551.172V551.172L311.831 552.344ZM331.167 579.751L332.105 581.354L333.736 580.4L332.754 578.786L331.167 579.751ZM273.665 546.886C264.951 555.523 255.853 565.632 246.716 576.518L249.562 578.907C258.651 568.077 267.671 558.058 276.281 549.524L273.665 546.886ZM313.272 551.172C303.67 539.363 284.886 535.762 273.665 546.886L276.281 549.524C285.545 540.342 301.793 542.945 310.389 553.516L313.272 551.172ZM332.754 578.786C326.954 569.242 320.467 560.02 313.272 551.172L310.389 553.516C317.477 562.232 323.866 571.315 329.579 580.716L332.754 578.786ZM330.229 578.147C319.209 584.591 305.79 588.384 291.292 588.384V592.099C306.435 592.099 320.503 588.138 332.105 581.354L330.229 578.147ZM291.292 588.384C275.361 588.384 260.735 583.805 249.162 576.162L247.115 579.263C259.313 587.318 274.654 592.099 291.292 592.099V588.384Z" fill="#FF6648" mask="url(#path-96-inside-19_3738_12063)"/>
<path fill-rule="evenodd" clip-rule="evenodd" d="M228.199 604.535C229.258 605.724 230.8 606.473 232.518 606.473C235.71 606.473 238.298 603.885 238.298 600.692C238.298 598.488 237.065 596.573 235.251 595.597C232.893 598.545 230.54 601.528 228.199 604.535Z" fill="black"/>
<circle cx="251.23" cy="605.687" r="5.78063" fill="black"/>
<circle cx="270.54" cy="617.248" r="5.78063" fill="black"/>
<rect x="0.433013" y="0.75" width="19.2011" height="19.2011" transform="matrix(0.866025 0.5 -2.20305e-08 1 167.701 793.373)" fill="black" stroke="#FF6648"/>
<rect x="0.433013" y="0.75" width="19.2011" height="19.2011" transform="matrix(0.866025 0.5 -2.20305e-08 1 191.908 807.038)" fill="black" stroke="#FF6648"/>
<path d="M214.569 755.067L208.916 732.817L234.498 751.962L254.185 784.868L259.786 823.893L240.26 803.72L229.984 773.46L214.569 755.067Z" fill="url(#paint49_linear_3738_12063)" stroke="#FF6648" stroke-width="1.10884"/>
<path d="M192.142 742.119L197.795 726.395L176.727 721.945L156.688 731.142L151.507 743.669L150.648 746.397L150.648 760.485L166.451 761.105L176.727 742.712L192.142 742.119Z" fill="url(#paint50_linear_3738_12063)" stroke="#FF6648" stroke-width="1.10884"/>
<g filter="url(#filter0_f_3738_12063)">
<rect x="234.756" y="865.646" width="25.0313" height="426.633" fill="#FFDBD4"/>
</g>
<mask id="path-106-inside-20_3738_12063" fill="white">
<path fill-rule="evenodd" clip-rule="evenodd" d="M242.746 1321.65C217.015 1321.65 196.156 1342.51 196.156 1368.24V1439.83C195.883 1448.39 200.429 1457.01 209.792 1463.55C227.989 1476.25 257.492 1476.25 275.689 1463.55C284.787 1457.2 289.337 1448.88 289.337 1440.55H289.337V1368.24C289.337 1342.51 268.478 1321.65 242.746 1321.65Z"/>
</mask>
<path fill-rule="evenodd" clip-rule="evenodd" d="M242.746 1321.65C217.015 1321.65 196.156 1342.51 196.156 1368.24V1439.83C195.883 1448.39 200.429 1457.01 209.792 1463.55C227.989 1476.25 257.492 1476.25 275.689 1463.55C284.787 1457.2 289.337 1448.88 289.337 1440.55H289.337V1368.24C289.337 1342.51 268.478 1321.65 242.746 1321.65Z" fill="black"/>
<path d="M196.156 1439.83L198.013 1439.89L198.014 1439.86V1439.83H196.156ZM209.792 1463.55L210.855 1462.02H210.855L209.792 1463.55ZM275.689 1463.55L276.752 1465.07L275.689 1463.55ZM289.337 1440.55V1438.7H287.479L287.479 1440.55L289.337 1440.55ZM289.337 1440.55V1442.41H291.195V1440.55H289.337ZM198.014 1368.24C198.014 1343.53 218.041 1323.51 242.746 1323.51V1319.79C215.989 1319.79 194.298 1341.48 194.298 1368.24H198.014ZM198.014 1439.83V1368.24H194.298V1439.83H198.014ZM210.855 1462.02C201.893 1455.77 197.764 1447.69 198.013 1439.89L194.299 1439.77C194.003 1449.09 198.964 1458.26 208.729 1465.07L210.855 1462.02ZM274.626 1462.02C265.898 1468.12 254.364 1471.21 242.741 1471.21C231.117 1471.21 219.583 1468.12 210.855 1462.02L208.729 1465.07C218.198 1471.68 230.514 1474.93 242.741 1474.93C254.967 1474.93 267.283 1471.68 276.752 1465.07L274.626 1462.02ZM287.479 1440.55C287.479 1448.15 283.335 1455.95 274.626 1462.02L276.752 1465.07C286.239 1458.45 291.194 1449.61 291.194 1440.55L287.479 1440.55ZM289.337 1438.7H289.337V1442.41H289.337V1438.7ZM287.479 1368.24V1440.55H291.195V1368.24H287.479ZM242.746 1323.51C267.452 1323.51 287.479 1343.53 287.479 1368.24H291.195C291.195 1341.48 269.504 1319.79 242.746 1319.79V1323.51Z" fill="black" mask="url(#path-106-inside-20_3738_12063)"/>
<mask id="path-108-inside-21_3738_12063" fill="white">
<path fill-rule="evenodd" clip-rule="evenodd" d="M242.751 1281.57C212.792 1281.57 188.506 1305.86 188.506 1335.81V1419.16C188.188 1429.13 193.48 1439.17 204.382 1446.78C225.569 1461.57 259.919 1461.57 281.105 1446.78C291.699 1439.39 296.995 1429.7 296.995 1420.01H296.996V1335.81C296.996 1305.86 272.709 1281.57 242.751 1281.57Z"/>
</mask>
<path fill-rule="evenodd" clip-rule="evenodd" d="M242.751 1281.57C212.792 1281.57 188.506 1305.86 188.506 1335.81V1419.16C188.188 1429.13 193.48 1439.17 204.382 1446.78C225.569 1461.57 259.919 1461.57 281.105 1446.78C291.699 1439.39 296.995 1429.7 296.995 1420.01H296.996V1335.81C296.996 1305.86 272.709 1281.57 242.751 1281.57Z" fill="url(#paint51_linear_3738_12063)"/>
<path fill-rule="evenodd" clip-rule="evenodd" d="M242.751 1281.57C212.792 1281.57 188.506 1305.86 188.506 1335.81V1419.16C188.188 1429.13 193.48 1439.17 204.382 1446.78C225.569 1461.57 259.919 1461.57 281.105 1446.78C291.699 1439.39 296.995 1429.7 296.995 1420.01H296.996V1335.81C296.996 1305.86 272.709 1281.57 242.751 1281.57Z" fill="url(#paint52_linear_3738_12063)" fill-opacity="0.2"/>
<path d="M188.506 1419.16L190.363 1419.22L190.363 1419.19V1419.16H188.506ZM204.382 1446.78L205.445 1445.26H205.445L204.382 1446.78ZM281.105 1446.78L282.169 1448.31L281.105 1446.78ZM296.995 1420.01V1418.15H295.138L295.138 1420.01L296.995 1420.01ZM296.996 1420.01V1421.87H298.853V1420.01H296.996ZM190.363 1335.81C190.363 1306.88 213.818 1283.43 242.751 1283.43V1279.71C211.766 1279.71 186.648 1304.83 186.648 1335.81H190.363ZM190.363 1419.16V1335.81H186.648V1419.16H190.363ZM205.445 1445.26C194.944 1437.93 190.069 1428.44 190.363 1419.22L186.649 1419.11C186.307 1429.83 192.016 1440.42 203.319 1448.31L205.445 1445.26ZM280.042 1445.26C269.819 1452.39 256.326 1456.01 242.744 1456.01C229.161 1456.01 215.668 1452.39 205.445 1445.26L203.319 1448.31C214.283 1455.96 228.558 1459.73 242.744 1459.73C256.93 1459.73 271.205 1455.96 282.169 1448.31L280.042 1445.26ZM295.138 1420.01C295.137 1428.97 290.247 1438.14 280.042 1445.26L282.169 1448.31C293.151 1440.64 298.853 1430.43 298.853 1420.01L295.138 1420.01ZM296.996 1418.15H296.995V1421.87H296.996V1418.15ZM295.138 1335.81V1420.01H298.853V1335.81H295.138ZM242.751 1283.43C271.683 1283.43 295.138 1306.88 295.138 1335.81H298.853C298.853 1304.83 273.735 1279.71 242.751 1279.71V1283.43Z" fill="#FF6648" mask="url(#path-108-inside-21_3738_12063)"/>
<rect x="556.641" y="1441.22" width="3.29513" height="576.394" fill="url(#paint53_linear_3738_12063)"/>
<defs>
<filter id="filter0_f_3738_12063" x="201.491" y="832.381" width="91.5619" height="493.164" filterUnits="userSpaceOnUse" color-interpolation-filters="sRGB">
<feFlood flood-opacity="0" result="BackgroundImageFix"/>
<feBlend mode="normal" in="SourceGraphic" in2="BackgroundImageFix" result="shape"/>
<feGaussianBlur stdDeviation="16.6327" result="effect1_foregroundBlur_3738_12063"/>
</filter>
<linearGradient id="paint0_linear_3738_12063" x1="613.546" y1="1383.67" x2="613.546" y2="2062.95" gradientUnits="userSpaceOnUse">
<stop stop-color="#FF8972" stop-opacity="0.27"/>
<stop offset="1" stop-color="#FFDBD4" stop-opacity="0"/>
</linearGradient>
<linearGradient id="paint1_linear_3738_12063" x1="156.602" y1="1425.77" x2="156.602" y2="1881.99" gradientUnits="userSpaceOnUse">
<stop stop-color="#FF6648"/>
<stop offset="1" stop-color="#FFDBD4" stop-opacity="0"/>
</linearGradient>
<linearGradient id="paint2_linear_3738_12063" x1="215.818" y1="1287.15" x2="215.818" y2="2092.51" gradientUnits="userSpaceOnUse">
<stop stop-color="#FF6648"/>
<stop offset="1" stop-color="#FFDBD4" stop-opacity="0"/>
</linearGradient>
<linearGradient id="paint3_linear_3738_12063" x1="215.818" y1="1287.15" x2="215.818" y2="2092.51" gradientUnits="userSpaceOnUse">
<stop stop-color="#FFDBD4"/>
<stop offset="1" stop-color="#FFDBD4" stop-opacity="0"/>
</linearGradient>
<linearGradient id="paint4_linear_3738_12063" x1="243.771" y1="1228.97" x2="276.926" y2="1120.91" gradientUnits="userSpaceOnUse">
<stop stop-color="#FFDBD4"/>
<stop offset="1" stop-color="#405394"/>
</linearGradient>
<linearGradient id="paint5_linear_3738_12063" x1="296.956" y1="1095.15" x2="134.729" y2="1000.95" gradientUnits="userSpaceOnUse">
<stop stop-color="#FFDBD4"/>
<stop offset="1" stop-color="white"/>
</linearGradient>
<linearGradient id="paint6_linear_3738_12063" x1="336.378" y1="837.819" x2="210.026" y2="882.628" gradientUnits="userSpaceOnUse">
<stop stop-color="#0F1D4B"/>
<stop offset="1" stop-opacity="0"/>
</linearGradient>
<linearGradient id="paint7_linear_3738_12063" x1="210.027" y1="633.335" x2="314.883" y2="665.718" gradientUnits="userSpaceOnUse">
<stop stop-color="#FFDBD4"/>
<stop offset="1" stop-color="#0F1D4B"/>
</linearGradient>
<linearGradient id="paint8_linear_3738_12063" x1="175.015" y1="475.907" x2="311.34" y2="486.992" gradientUnits="userSpaceOnUse">
<stop stop-color="#FFF2EF"/>
<stop offset="1" stop-color="#0F1D4B"/>
</linearGradient>
<linearGradient id="paint9_linear_3738_12063" x1="210.036" y1="773.012" x2="210.036" y2="815.606" gradientUnits="userSpaceOnUse">
<stop stop-color="#FF6648"/>
<stop offset="1" stop-color="#FF6648" stop-opacity="0"/>
</linearGradient>
<linearGradient id="paint10_linear_3738_12063" x1="210.036" y1="920.088" x2="210.036" y2="962.681" gradientUnits="userSpaceOnUse">
<stop stop-color="#FF6648"/>
<stop offset="1" stop-color="#FF6648" stop-opacity="0"/>
</linearGradient>
<linearGradient id="paint11_linear_3738_12063" x1="210.036" y1="625.937" x2="210.036" y2="668.53" gradientUnits="userSpaceOnUse">
<stop stop-color="#FF6648"/>
<stop offset="1" stop-color="#FF6648" stop-opacity="0"/>
</linearGradient>
<linearGradient id="paint12_linear_3738_12063" x1="499.851" y1="1449.96" x2="499.851" y2="1868.06" gradientUnits="userSpaceOnUse">
<stop stop-color="#FF8972" stop-opacity="0.46"/>
<stop offset="1" stop-color="#FFDBD4" stop-opacity="0"/>
</linearGradient>
<linearGradient id="paint13_linear_3738_12063" x1="554.436" y1="1432.15" x2="554.436" y2="2031.61" gradientUnits="userSpaceOnUse">
<stop stop-color="#FFF2EF"/>
<stop offset="1" stop-color="#FFDBD4" stop-opacity="0"/>
</linearGradient>
<linearGradient id="paint14_linear_3738_12063" x1="577.711" y1="1405.2" x2="577.711" y2="2210.56" gradientUnits="userSpaceOnUse">
<stop stop-color="#FF6648"/>
<stop offset="1" stop-color="#FFDBD4" stop-opacity="0"/>
</linearGradient>
<linearGradient id="paint15_linear_3738_12063" x1="577.711" y1="1405.2" x2="577.711" y2="2210.56" gradientUnits="userSpaceOnUse">
<stop stop-color="#FFDBD4"/>
<stop offset="1" stop-color="#FFDBD4" stop-opacity="0"/>
</linearGradient>
<linearGradient id="paint16_linear_3738_12063" x1="244.968" y1="1412.56" x2="244.968" y2="2135.27" gradientUnits="userSpaceOnUse">
<stop stop-color="#FF8972"/>
<stop offset="1" stop-color="#FFDBD4" stop-opacity="0"/>
</linearGradient>
<linearGradient id="paint17_linear_3738_12063" x1="246.993" y1="1470.19" x2="246.993" y2="1926.41" gradientUnits="userSpaceOnUse">
<stop stop-color="#FF6648"/>
<stop offset="1" stop-color="#FFDBD4" stop-opacity="0"/>
</linearGradient>
<linearGradient id="paint18_linear_3738_12063" x1="142.873" y1="1367.6" x2="142.873" y2="2090.31" gradientUnits="userSpaceOnUse">
<stop stop-color="#FF8972"/>
<stop offset="1" stop-color="#FFDBD4" stop-opacity="0"/>
</linearGradient>
<linearGradient id="paint19_linear_3738_12063" x1="409.9" y1="352.753" x2="409.9" y2="1272.23" gradientUnits="userSpaceOnUse">
<stop stop-color="#FFDBD4"/>
<stop offset="1" stop-color="#FFF2EF"/>
</linearGradient>
<linearGradient id="paint20_linear_3738_12063" x1="399.198" y1="983.379" x2="550.996" y2="993.97" gradientUnits="userSpaceOnUse">
<stop stop-color="white" stop-opacity="0.24"/>
<stop offset="1" stop-color="#1E306C"/>
</linearGradient>
<linearGradient id="paint21_linear_3738_12063" x1="409.9" y1="-199.395" x2="409.9" y2="720.087" gradientUnits="userSpaceOnUse">
<stop stop-color="#FFDBD4"/>
<stop offset="1" stop-color="#FFF2EF"/>
</linearGradient>
<linearGradient id="paint22_linear_3738_12063" x1="876.986" y1="536.42" x2="387.159" y2="523.378" gradientUnits="userSpaceOnUse">
<stop stop-color="#1E306C"/>
<stop offset="1" stop-color="#FFF2EF"/>
</linearGradient>
<linearGradient id="paint23_linear_3738_12063" x1="620.228" y1="94.1561" x2="633.917" y2="380.183" gradientUnits="userSpaceOnUse">
<stop stop-color="#F7B4A6"/>
<stop offset="1" stop-color="#FFF2EF"/>
</linearGradient>
<linearGradient id="paint24_linear_3738_12063" x1="424.31" y1="225.044" x2="726.222" y2="261.222" gradientUnits="userSpaceOnUse">
<stop stop-color="#636576" stop-opacity="0.28"/>
<stop offset="0.723958" stop-color="#0F1D4B" stop-opacity="0.63"/>
<stop offset="1" stop-color="#FF8972" stop-opacity="0.67"/>
</linearGradient>
<linearGradient id="paint25_linear_3738_12063" x1="461.162" y1="670.511" x2="195.893" y2="1129.97" gradientUnits="userSpaceOnUse">
<stop stop-color="#FF6648"/>
<stop offset="1" stop-color="#FF8972"/>
</linearGradient>
<linearGradient id="paint26_linear_3738_12063" x1="605.667" y1="1347.01" x2="638.823" y2="1238.95" gradientUnits="userSpaceOnUse">
<stop stop-color="#FFDBD4"/>
<stop offset="1" stop-color="#405394"/>
</linearGradient>
<linearGradient id="paint27_linear_3738_12063" x1="658.85" y1="1213.2" x2="496.623" y2="1119" gradientUnits="userSpaceOnUse">
<stop stop-color="#FFDBD4"/>
<stop offset="1" stop-color="white"/>
</linearGradient>
<linearGradient id="paint28_linear_3738_12063" x1="698.273" y1="955.868" x2="571.92" y2="1000.68" gradientUnits="userSpaceOnUse">
<stop stop-color="#0F1D4B"/>
<stop offset="1" stop-opacity="0"/>
</linearGradient>
<linearGradient id="paint29_linear_3738_12063" x1="571.922" y1="751.384" x2="676.777" y2="783.766" gradientUnits="userSpaceOnUse">
<stop stop-color="#FFDBD4"/>
<stop offset="1" stop-color="#0F1D4B"/>
</linearGradient>
<linearGradient id="paint30_linear_3738_12063" x1="536.909" y1="593.956" x2="673.235" y2="605.041" gradientUnits="userSpaceOnUse">
<stop stop-color="#FFF2EF"/>
<stop offset="1" stop-color="#0F1D4B"/>
</linearGradient>
<linearGradient id="paint31_linear_3738_12063" x1="571.93" y1="891.061" x2="571.93" y2="933.654" gradientUnits="userSpaceOnUse">
<stop stop-color="#FF6648"/>
<stop offset="1" stop-color="#FF6648" stop-opacity="0"/>
</linearGradient>
<linearGradient id="paint32_linear_3738_12063" x1="571.93" y1="1038.14" x2="571.93" y2="1080.73" gradientUnits="userSpaceOnUse">
<stop stop-color="#FF6648"/>
<stop offset="1" stop-color="#FF6648" stop-opacity="0"/>
</linearGradient>
<linearGradient id="paint33_linear_3738_12063" x1="571.93" y1="743.985" x2="571.93" y2="786.579" gradientUnits="userSpaceOnUse">
<stop stop-color="#FF6648"/>
<stop offset="1" stop-color="#FF6648" stop-opacity="0"/>
</linearGradient>
<linearGradient id="paint34_linear_3738_12063" x1="174.548" y1="1412.56" x2="174.548" y2="1988.95" gradientUnits="userSpaceOnUse">
<stop stop-color="#FF8972"/>
<stop offset="1" stop-color="#FFDBD4" stop-opacity="0"/>
</linearGradient>
<linearGradient id="paint35_linear_3738_12063" x1="149.584" y1="1228.9" x2="149.584" y2="1405.2" gradientUnits="userSpaceOnUse">
<stop stop-color="white"/>
<stop offset="1" stop-color="#FFF2EF"/>
</linearGradient>
<linearGradient id="paint36_linear_3738_12063" x1="149.584" y1="1228.9" x2="149.584" y2="1405.2" gradientUnits="userSpaceOnUse">
<stop stop-color="white"/>
<stop offset="1" stop-opacity="0"/>
<stop offset="1" stop-opacity="0"/>
<stop offset="1" stop-color="#EFF0F8"/>
</linearGradient>
<linearGradient id="paint37_linear_3738_12063" x1="160.974" y1="955.044" x2="27.2785" y2="1186.61" gradientUnits="userSpaceOnUse">
<stop stop-color="#FFF2EF"/>
<stop offset="1" stop-color="white"/>
</linearGradient>
<linearGradient id="paint38_linear_3738_12063" x1="160.974" y1="650.759" x2="-82.6718" y2="1072.77" gradientUnits="userSpaceOnUse">
<stop stop-color="#070B19"/>
<stop offset="1" stop-color="#0F1D4B"/>
</linearGradient>
<linearGradient id="paint39_linear_3738_12063" x1="467.173" y1="775.702" x2="201.904" y2="1235.16" gradientUnits="userSpaceOnUse">
<stop stop-color="#FFDBD4"/>
<stop offset="1" stop-color="#FF8972"/>
</linearGradient>
<linearGradient id="paint40_linear_3738_12063" x1="467.173" y1="775.702" x2="201.904" y2="1235.16" gradientUnits="userSpaceOnUse">
<stop offset="0.333333" stop-color="#FFDBD4"/>
<stop offset="0.555934" stop-color="#FFB4A5"/>
<stop offset="1" stop-color="#FF6648"/>
</linearGradient>
<linearGradient id="paint41_linear_3738_12063" x1="338.855" y1="1159.77" x2="579.841" y2="1621.15" gradientUnits="userSpaceOnUse">
<stop stop-color="#FFDBD4"/>
<stop offset="1" stop-color="#FF8972"/>
</linearGradient>
<linearGradient id="paint42_linear_3738_12063" x1="259.786" y1="1040.54" x2="396.689" y2="1030.64" gradientUnits="userSpaceOnUse">
<stop stop-color="white"/>
<stop offset="1" stop-color="#FFF2EF"/>
</linearGradient>
<linearGradient id="paint43_linear_3738_12063" x1="539.619" y1="1301.93" x2="259.786" y2="1227.05" gradientUnits="userSpaceOnUse">
<stop stop-color="#1E306C"/>
<stop offset="1" stop-opacity="0"/>
</linearGradient>
<linearGradient id="paint44_linear_3738_12063" x1="95.3323" y1="1326.34" x2="181.44" y2="1475.48" gradientUnits="userSpaceOnUse">
<stop stop-color="#FF8972"/>
<stop offset="1" stop-color="#FFDBD4"/>
</linearGradient>
<linearGradient id="paint45_linear_3738_12063" x1="99.1946" y1="1330.57" x2="183.571" y2="1476.72" gradientUnits="userSpaceOnUse">
<stop stop-color="#FFDBD4"/>
<stop offset="1" stop-color="#FFF2EF"/>
</linearGradient>
<linearGradient id="paint46_linear_3738_12063" x1="259.788" y1="704.152" x2="382.837" y2="704.152" gradientUnits="userSpaceOnUse">
<stop stop-color="white"/>
<stop offset="1" stop-color="#FFF2EF"/>
</linearGradient>
<linearGradient id="paint47_linear_3738_12063" x1="246.213" y1="733.807" x2="411.784" y2="774.858" gradientUnits="userSpaceOnUse">
<stop stop-color="white" stop-opacity="0"/>
<stop offset="0.929107" stop-color="#1E306C" stop-opacity="0.43"/>
</linearGradient>
<linearGradient id="paint48_linear_3738_12063" x1="289.653" y1="542.044" x2="331.167" y2="590.241" gradientUnits="userSpaceOnUse">
<stop stop-color="#FFDBD4"/>
<stop offset="1" stop-color="#FF8972"/>
</linearGradient>
<linearGradient id="paint49_linear_3738_12063" x1="234.351" y1="747.501" x2="207.631" y2="793.781" gradientUnits="userSpaceOnUse">
<stop stop-color="#070B19"/>
<stop offset="1" stop-color="#0F1D4B"/>
</linearGradient>
<linearGradient id="paint50_linear_3738_12063" x1="172.36" y1="711.71" x2="145.64" y2="757.99" gradientUnits="userSpaceOnUse">
<stop stop-color="#070B19"/>
<stop offset="1" stop-color="#0F1D4B"/>
</linearGradient>
<linearGradient id="paint51_linear_3738_12063" x1="242.744" y1="1281.57" x2="242.744" y2="1457.87" gradientUnits="userSpaceOnUse">
<stop stop-color="white"/>
<stop offset="1" stop-color="#FFF2EF"/>
</linearGradient>
<linearGradient id="paint52_linear_3738_12063" x1="210.218" y1="1388.56" x2="231.189" y2="1477.03" gradientUnits="userSpaceOnUse">
<stop stop-color="#FFDBD4"/>
<stop offset="1" stop-color="#0F1D4B"/>
</linearGradient>
<linearGradient id="paint53_linear_3738_12063" x1="558.288" y1="1441.22" x2="558.288" y2="2017.62" gradientUnits="userSpaceOnUse">
<stop stop-color="#FF8972"/>
<stop offset="1" stop-color="#FFDBD4" stop-opacity="0"/>
</linearGradient>
</defs>
</svg>
