<svg width="20" height="21" viewBox="0 0 20 21" fill="none" xmlns="http://www.w3.org/2000/svg">
<g clip-path="url(#clip0_842_16633)">
<path d="M9.99821 20.4963C4.4631 20.4999 0 16.0439 0 10.5088C0 4.91654 4.52385 0.457019 10.0911 0.503472C15.5548 0.549926 20.0393 4.97014 20 10.5839C19.9571 16.1011 15.494 20.5034 9.99821 20.4963ZM10.67 14.3037C10.7843 14.2751 10.888 14.2501 10.988 14.2215C12.035 13.9321 12.8426 13.0995 12.7425 11.8417C12.6854 11.1199 12.3602 10.591 11.6884 10.2944C11.2417 10.0943 10.7701 10.0193 10.2948 9.93351C9.90531 9.86561 9.51224 9.787 9.13704 9.66193C8.75112 9.53329 8.61533 9.21169 8.62605 8.81148C8.64034 8.42556 8.81544 8.15756 9.16562 8.0039C9.46579 7.87169 9.78024 7.87526 10.0947 7.89313C10.6521 7.92172 11.0452 8.17542 11.2274 8.715C11.2882 8.89367 11.4097 8.96871 11.5919 8.96871C11.7706 8.96871 11.9493 8.96871 12.1279 8.96871C12.4209 8.96513 12.5389 8.81862 12.4745 8.53276C12.2959 7.71804 11.6205 7.07484 10.7843 6.9462C10.6557 6.92476 10.6164 6.88188 10.62 6.75681C10.6271 6.49953 10.6235 6.24582 10.6235 5.98854C10.6235 5.74556 10.4842 5.59905 10.2412 5.58833C10.0733 5.58118 9.90888 5.58476 9.74093 5.58833C9.47293 5.58833 9.33357 5.72054 9.32285 5.98854C9.3157 6.16006 9.32285 6.33516 9.32285 6.50668C9.32285 6.86044 9.32285 6.86044 8.98696 6.94262C8.01143 7.18918 7.37538 7.85025 7.29677 8.75788C7.22173 9.66551 7.53618 10.3552 8.41522 10.6982C8.72968 10.8197 9.062 10.8947 9.39074 10.9769C9.87315 11.0948 10.377 11.1556 10.8415 11.32C11.4025 11.5165 11.5848 12.1454 11.2846 12.6671C11.0595 13.0566 10.6986 13.2317 10.2698 13.2746C9.47651 13.3568 8.60104 13.1531 8.44738 12.1883C8.42237 12.0382 8.30088 11.9596 8.14722 11.9596C7.95783 11.956 7.76487 11.956 7.57549 11.956C7.2253 11.956 7.1181 12.0918 7.18957 12.4384C7.40397 13.4354 8.05789 13.9857 9.01554 14.2251C9.13346 14.2537 9.25496 14.2787 9.38002 14.3073C9.38002 14.636 9.38002 14.9433 9.38002 15.2542C9.38002 15.4829 9.51224 15.6151 9.74451 15.6223C9.90531 15.6258 10.0661 15.6258 10.2269 15.6258C10.5485 15.6258 10.6736 15.5008 10.6736 15.1684C10.6736 14.8826 10.67 14.5967 10.67 14.3037ZM11.8849 17.1767C11.8849 17.3089 11.8742 17.4411 11.8885 17.5697C11.91 17.777 12.0815 17.8735 12.2744 17.802C12.3066 17.7913 12.3423 17.777 12.3745 17.7663C13.7538 17.3089 14.9223 16.5335 15.8263 15.3971C17.3021 13.5426 17.8524 11.4343 17.3486 9.11521C16.7375 6.31014 15.0188 4.44129 12.3245 3.46934C12.0493 3.36929 11.8885 3.49078 11.8778 3.78737C11.8706 3.97675 11.8671 4.16971 11.8742 4.3591C11.8849 4.5878 11.9993 4.7486 12.2173 4.83078C14.858 5.83489 16.5124 8.49345 16.1765 11.2878C15.8871 13.6819 14.6185 15.39 12.4066 16.3798C11.8814 16.6156 11.8778 16.6085 11.8849 17.1767ZM2.46918 10.5946C2.49062 10.909 2.49419 11.2271 2.53707 11.5379C2.83723 13.6676 3.84134 15.39 5.57441 16.6728C6.22119 17.1516 6.93586 17.4983 7.69698 17.752C7.90781 17.8199 8.01858 17.7806 8.08647 17.5697C8.12935 17.4375 8.12221 17.291 8.12578 17.1481C8.12935 16.5978 8.10434 16.562 7.60765 16.3548C7.55405 16.3334 7.50045 16.3048 7.44327 16.2797C4.17366 14.8218 2.70859 10.7804 4.64535 7.45004C5.37788 6.18865 6.44631 5.31318 7.80061 4.7879C8.04359 4.695 8.12578 4.57708 8.12935 4.31622C8.13293 4.18401 8.12935 4.05537 8.12935 3.92315C8.12935 3.44433 8.01143 3.35499 7.56477 3.50507C4.52385 4.53062 2.47275 7.39286 2.46918 10.5946Z" fill="#0274D0"/>
<path d="M10.6695 14.3038C10.6695 14.5968 10.6695 14.8827 10.6695 15.165C10.6695 15.4937 10.5444 15.6224 10.2228 15.6224C10.062 15.6224 9.90121 15.6259 9.74041 15.6188C9.51172 15.6116 9.3795 15.4794 9.37593 15.2507C9.37236 14.9398 9.37593 14.6325 9.37593 14.3038C9.25086 14.2752 9.13294 14.2502 9.01145 14.2216C8.0538 13.9822 7.40346 13.4319 7.18548 12.4349C7.11044 12.0883 7.21764 11.9525 7.5714 11.9525C7.76079 11.9525 7.95375 11.9525 8.14313 11.9561C8.30036 11.9597 8.42185 12.0347 8.44329 12.1848C8.59695 13.1496 9.47598 13.3533 10.2657 13.2711C10.6945 13.2282 11.0554 13.0531 11.2805 12.6636C11.5807 12.1419 11.3984 11.5166 10.8374 11.3164C10.3693 11.1521 9.86905 11.0913 9.38665 10.9734C9.0579 10.8948 8.72559 10.8197 8.41113 10.6947C7.5321 10.3481 7.21764 9.6584 7.29268 8.75433C7.36772 7.84312 8.00377 7.18205 8.98286 6.93906C9.31876 6.8533 9.31876 6.8533 9.31876 6.50311C9.31876 6.33159 9.31518 6.15649 9.31876 5.98497C9.32948 5.71696 9.46884 5.58475 9.73684 5.58475C9.90478 5.58475 10.0692 5.5776 10.2371 5.58475C10.4801 5.59547 10.6159 5.74198 10.6194 5.98497C10.623 6.24225 10.6266 6.49596 10.6159 6.75324C10.6123 6.87831 10.648 6.92477 10.7802 6.94263C11.6128 7.07127 12.2918 7.71448 12.4704 8.52921C12.5347 8.81866 12.4168 8.96159 12.1238 8.96516C11.9451 8.96516 11.7665 8.96516 11.5878 8.96516C11.4092 8.96516 11.2841 8.8937 11.2233 8.71145C11.0411 8.17187 10.648 7.92174 10.0906 7.88958C9.77257 7.87171 9.45812 7.86814 9.16153 8.00035C8.81134 8.15401 8.63268 8.42201 8.62196 8.80793C8.60767 9.20815 8.74703 9.52976 9.13294 9.6584C9.50814 9.78347 9.90121 9.86208 10.2907 9.92997C10.766 10.0157 11.2412 10.0908 11.6843 10.2909C12.3561 10.591 12.6813 11.1199 12.7384 11.8382C12.8385 13.096 12.0309 13.9286 10.9839 14.218C10.8874 14.2502 10.7838 14.2752 10.6695 14.3038Z" fill="#FEFEFE"/>
<path d="M11.8846 17.1766C11.8775 16.6049 11.881 16.6156 12.4099 16.3798C14.6218 15.39 15.8904 13.6819 16.1798 11.2878C16.5157 8.49341 14.8613 5.83841 12.2205 4.83073C12.0025 4.74855 11.8882 4.58775 11.8775 4.35905C11.8703 4.16967 11.8739 3.97671 11.881 3.78732C11.8918 3.49073 12.0526 3.37281 12.3277 3.46929C15.0256 4.44124 16.7409 6.3101 17.3519 9.11517C17.8558 11.4343 17.3055 13.5425 15.8296 15.3971C14.922 16.5334 13.7535 17.3088 12.3777 17.7662C12.3456 17.7769 12.3098 17.7912 12.2777 17.802C12.0811 17.8734 11.9132 17.7769 11.8918 17.5697C11.8739 17.441 11.8846 17.3088 11.8846 17.1766Z" fill="#FEFEFE"/>
<path d="M2.46979 10.5946C2.47336 7.3929 4.52445 4.53423 7.56893 3.50511C8.0156 3.35503 8.13352 3.44436 8.13352 3.92319C8.13352 4.0554 8.13352 4.18404 8.13352 4.31626C8.12995 4.57711 8.04776 4.69146 7.80477 4.78794C6.45048 5.31679 5.38205 6.19226 4.64952 7.45008C2.71277 10.7804 4.17784 14.8219 7.45101 16.2798C7.50461 16.3048 7.55821 16.3298 7.61539 16.3548C8.11565 16.5657 8.14067 16.5978 8.13352 17.1481C8.13352 17.2875 8.13709 17.4376 8.09421 17.5698C8.02632 17.7806 7.91197 17.8199 7.70472 17.752C6.9436 17.5019 6.22536 17.1517 5.58216 16.6729C3.84909 15.39 2.84499 13.6677 2.54483 11.538C2.4948 11.2235 2.49123 10.9091 2.46979 10.5946Z" fill="#FEFEFE"/>
</g>
<defs>
<clipPath id="clip0_842_16633">
<rect width="20" height="19.9929" fill="white" transform="translate(0 0.503571)"/>
</clipPath>
</defs>
</svg>
