<svg width="20" height="21" viewBox="0 0 20 21" fill="none" xmlns="http://www.w3.org/2000/svg">
<g clip-path="url(#clip0_842_16638)">
<path d="M10.3897 20.4991C10.1266 20.4991 9.86343 20.4991 9.59932 20.4991C9.58931 20.496 9.57931 20.49 9.5683 20.49C9.50427 20.486 9.43924 20.483 9.37521 20.479C9.06207 20.46 8.74993 20.427 8.43979 20.377C7.80751 20.2759 7.18923 20.1179 6.58696 19.8988C5.73958 19.5906 4.94723 19.1765 4.21089 18.6532C3.13841 17.8909 2.25001 16.9534 1.5467 15.8419C0.925418 14.8595 0.488221 13.8 0.238109 12.6645C0.181083 12.4034 0.134062 12.1403 0.0910429 11.8762C0.0660317 11.7241 0.0570276 11.569 0.04002 11.4159C0.0330168 11.3469 0.0230123 11.2779 0.0190105 11.2078C0.0130078 11.1118 0.0120074 11.0158 0.00700514 10.9197C0.00700514 10.9087 0.00100245 10.8987 -0.0019989 10.8887C-0.0019989 10.6286 -0.0019989 10.3685 -0.0019989 10.1084C0.00100245 10.0983 0.00600469 10.0873 0.00700514 10.0773C0.0110069 10.0113 0.0130078 9.94528 0.0180101 9.87925C0.0310159 9.71818 0.0420209 9.5581 0.0590285 9.39803C0.102048 9.00585 0.169078 8.61668 0.258118 8.2325C0.443201 7.44115 0.717324 6.6828 1.08849 5.96048C1.85383 4.4668 2.92632 3.23925 4.30394 2.28081C5.1043 1.72356 5.96968 1.29637 6.8971 0.99423C7.58341 0.769128 8.28272 0.621061 8.99905 0.55103C9.17513 0.534022 9.3522 0.522017 9.52828 0.511012C9.63733 0.504008 9.74738 0.501007 9.85643 0.501007C9.97248 0.501007 10.0885 0.506009 10.2046 0.510011C10.3677 0.516014 10.5297 0.523017 10.6928 0.53002C10.7668 0.533022 10.8419 0.534022 10.9159 0.542026C11.11 0.563035 11.3051 0.584045 11.4982 0.613058C12.0704 0.699097 12.6307 0.834158 13.1789 1.01924C14.6236 1.50746 15.8951 2.28081 16.9856 3.34629C18.1442 4.47881 18.9775 5.81641 19.4908 7.35211C19.6979 7.97239 19.8419 8.60767 19.921 9.25597C19.94 9.41504 19.959 9.57411 19.969 9.73418C19.983 9.96129 19.993 10.1894 19.998 10.4165C20.001 10.5375 19.994 10.6586 19.989 10.7807C19.984 10.9147 19.978 11.0488 19.969 11.1828C19.961 11.3019 19.95 11.4209 19.939 11.54C19.929 11.644 19.921 11.7481 19.9069 11.8511C19.8589 12.2073 19.7909 12.5605 19.7039 12.9096C19.4017 14.1212 18.8955 15.2407 18.1722 16.2581C16.9546 17.9719 15.3559 19.1885 13.38 19.9088C12.5997 20.1929 11.7943 20.373 10.9669 20.45C10.7868 20.467 10.6058 20.476 10.4247 20.489C10.4137 20.491 10.4017 20.496 10.3897 20.4991ZM5.23736 16.057C5.26737 16.057 5.28838 16.057 5.30939 16.057C6.72302 16.057 8.13566 16.057 9.54929 16.057C9.84843 16.057 10.1476 16.054 10.4457 16.018C10.6738 15.99 10.9019 15.962 11.126 15.917C11.6632 15.8089 12.1825 15.6399 12.6697 15.3887C12.8958 15.2727 13.1169 15.1446 13.329 15.0036C13.5001 14.8895 13.6581 14.7535 13.8152 14.6194C14.4635 14.0651 14.9417 13.3898 15.2479 12.5935C15.2759 12.5194 15.3299 12.4864 15.4099 12.4864C15.8101 12.4874 16.2093 12.4884 16.6095 12.4874C16.6965 12.4874 16.7285 12.4564 16.7295 12.3704C16.7305 12.0973 16.7285 11.8241 16.7305 11.551C16.7315 11.464 16.7175 11.3759 16.7465 11.2889C16.7545 11.2659 16.7435 11.2359 16.7405 11.2048C16.7115 11.2048 16.6915 11.2048 16.6715 11.2048C16.3694 11.2048 16.0682 11.2048 15.7661 11.2048C15.7391 11.2048 15.7131 11.2038 15.686 11.2018C15.639 11.1968 15.618 11.1748 15.619 11.1268C15.62 11.0878 15.627 11.0478 15.629 11.0088C15.636 10.8867 15.646 10.7636 15.647 10.6416C15.648 10.4725 15.641 10.3024 15.638 10.1334C15.638 10.1234 15.635 10.1134 15.634 10.1044C15.629 10.0353 15.622 9.96629 15.619 9.89726C15.617 9.86224 15.639 9.84123 15.672 9.83623C15.6931 9.83223 15.7151 9.83223 15.7371 9.83223C16.0192 9.83223 16.3003 9.83223 16.5825 9.83223C16.7075 9.83223 16.7305 9.80822 16.7305 9.68216C16.7305 9.35701 16.7305 9.03187 16.7305 8.70772C16.7305 8.6757 16.7295 8.64469 16.7265 8.61267C16.7235 8.57166 16.7035 8.54765 16.6605 8.54665C16.6455 8.54564 16.6305 8.54364 16.6155 8.54364C16.2243 8.54464 15.8321 8.54464 15.4409 8.54564C15.3639 8.54564 15.3039 8.50363 15.2789 8.42959C15.2749 8.41859 15.2719 8.40758 15.2679 8.39658C15.0097 7.71827 14.6136 7.127 14.1033 6.61477C13.395 5.90345 12.5416 5.43924 11.5782 5.17012C11.2721 5.08408 10.9609 5.01805 10.6428 4.99004C10.4337 4.97203 10.2256 4.94001 10.0165 4.94001C8.47481 4.93601 6.93312 4.93801 5.39142 4.93801C5.35941 4.93801 5.3284 4.93901 5.29638 4.94202C5.26037 4.94502 5.23836 4.96503 5.23636 5.00304C5.23535 5.03106 5.23435 5.06007 5.23435 5.08808C5.23435 6.18758 5.23435 7.28808 5.23435 8.38757C5.23435 8.42059 5.23135 8.4536 5.22935 8.48762C5.22735 8.52864 5.20234 8.54665 5.16432 8.54865C5.14431 8.54965 5.1243 8.54965 5.1043 8.54965C4.6631 8.54965 4.2209 8.54965 3.7797 8.55065C3.74669 8.55065 3.71267 8.55865 3.67966 8.56265C3.67565 8.59066 3.67065 8.60867 3.67065 8.62668C3.67065 8.99685 3.66965 9.36702 3.67065 9.73618C3.67065 9.82322 3.68866 9.83823 3.7737 9.83823C3.95578 9.83823 4.13686 9.83823 4.31894 9.83823C4.59207 9.83823 4.86519 9.83823 5.13931 9.83923C5.16732 9.83923 5.19634 9.84723 5.22635 9.85124C5.22935 9.88325 5.23335 9.90626 5.23335 9.92927C5.23335 10.3174 5.23435 10.7056 5.23335 11.0938C5.23335 11.1978 5.21935 11.2108 5.1143 11.2108C4.65409 11.2108 4.19389 11.2108 3.73468 11.2108C3.71467 11.2108 3.69566 11.2108 3.67365 11.2108C3.67165 11.2269 3.66965 11.2379 3.66965 11.2499C3.66965 11.63 3.66865 12.0102 3.66965 12.3894C3.66965 12.4864 3.68366 12.4994 3.7797 12.4994C4.2279 12.4994 4.6761 12.4994 5.1243 12.4994C5.15632 12.4994 5.18833 12.5054 5.23335 12.5104C5.23335 13.1057 5.23335 13.693 5.23335 14.2802C5.23736 14.8705 5.23736 15.4598 5.23736 16.057Z" fill="#FEA900"/>
<path d="M5.23739 16.057C5.23739 15.4607 5.23739 14.8705 5.23739 14.2812C5.23739 13.6939 5.23739 13.1067 5.23739 12.5114C5.19337 12.5064 5.16135 12.5004 5.12834 12.5004C4.68013 12.4994 4.23193 12.5004 3.78373 12.5004C3.68868 12.5004 3.67368 12.4874 3.67368 12.3904C3.67268 12.0102 3.67368 11.63 3.67368 11.2508C3.67368 11.2398 3.67568 11.2278 3.67768 11.2118C3.69869 11.2118 3.7187 11.2118 3.73871 11.2118C4.19892 11.2118 4.65912 11.2118 5.11833 11.2118C5.22338 11.2118 5.23739 11.1998 5.23739 11.0948C5.23839 10.7066 5.23739 10.3184 5.23739 9.93024C5.23739 9.90723 5.23338 9.88422 5.23038 9.8522C5.20037 9.8482 5.17135 9.8402 5.14334 9.8402C4.87022 9.8392 4.5971 9.8392 4.32297 9.8392C4.14089 9.8392 3.95981 9.8392 3.77772 9.8392C3.69169 9.8392 3.67468 9.82419 3.67468 9.73715C3.67368 9.36698 3.67368 8.99681 3.67468 8.62765C3.67468 8.60964 3.67968 8.59163 3.68368 8.56362C3.7167 8.55962 3.75071 8.55161 3.78373 8.55161C4.22493 8.55061 4.66713 8.55061 5.10833 8.55061C5.12834 8.55061 5.14834 8.55061 5.16835 8.54961C5.20637 8.54761 5.23138 8.5296 5.23338 8.48858C5.23538 8.45557 5.23839 8.42255 5.23839 8.38854C5.23839 7.28904 5.23839 6.18854 5.23839 5.08904C5.23839 5.06103 5.23939 5.03202 5.24039 5.00401C5.24139 4.96599 5.2634 4.94598 5.30041 4.94298C5.33143 4.93998 5.36344 4.93898 5.39546 4.93898C6.93715 4.93898 8.47885 4.93698 10.0205 4.94098C10.2296 4.94198 10.4377 4.97299 10.6468 4.991C10.965 5.01901 11.2751 5.08504 11.5823 5.17108C12.5447 5.4402 13.3991 5.90441 14.1074 6.61574C14.6166 7.12797 15.0128 7.71823 15.2719 8.39754C15.2759 8.40855 15.2789 8.41955 15.2829 8.43056C15.3069 8.50459 15.368 8.54661 15.445 8.54661C15.8362 8.54561 16.2284 8.54461 16.6195 8.54461C16.6345 8.54461 16.6495 8.54661 16.6646 8.54761C16.7076 8.54961 16.7276 8.57362 16.7306 8.61364C16.7326 8.64566 16.7346 8.67667 16.7346 8.70868C16.7346 9.03383 16.7346 9.35898 16.7346 9.68312C16.7346 9.80918 16.7126 9.83219 16.5865 9.83319C16.3044 9.83419 16.0233 9.83319 15.7411 9.83319C15.7191 9.83319 15.6971 9.83319 15.6761 9.83719C15.6431 9.8432 15.6211 9.86421 15.6231 9.89822C15.6261 9.96725 15.6331 10.0363 15.6381 10.1053C15.6391 10.1153 15.6421 10.1253 15.6421 10.1343C15.6461 10.3034 15.6521 10.4735 15.6511 10.6426C15.6501 10.7656 15.6401 10.8877 15.6331 11.0097C15.6311 11.0487 15.6241 11.0888 15.6231 11.1278C15.6221 11.1758 15.6421 11.1978 15.6901 11.2028C15.7161 11.2058 15.7431 11.2058 15.7702 11.2058C16.0723 11.2058 16.3734 11.2058 16.6756 11.2058C16.6956 11.2058 16.7146 11.2058 16.7446 11.2058C16.7476 11.2368 16.7586 11.2658 16.7506 11.2899C16.7216 11.3759 16.7356 11.4639 16.7346 11.552C16.7326 11.8251 16.7346 12.0982 16.7336 12.3713C16.7336 12.4574 16.7006 12.4884 16.6135 12.4884C16.2134 12.4884 15.8142 12.4884 15.414 12.4874C15.334 12.4874 15.2799 12.5214 15.2519 12.5944C14.9458 13.3908 14.4676 14.0671 13.8193 14.6204C13.6622 14.7544 13.5051 14.8905 13.333 15.0045C13.121 15.1456 12.8999 15.2727 12.6737 15.3897C12.1855 15.6418 11.6673 15.8099 11.1301 15.9179C10.9059 15.963 10.6768 15.991 10.4497 16.019C10.1526 16.055 9.85347 16.058 9.55334 16.058C8.1397 16.057 6.72706 16.058 5.31342 16.058C5.28841 16.057 5.2674 16.057 5.23739 16.057ZM13.8713 8.5246C13.8753 8.5216 13.8783 8.5186 13.8823 8.5156C13.8673 8.46957 13.8583 8.41955 13.8353 8.37753C13.7702 8.25948 13.7032 8.14243 13.6292 8.02938C13.4171 7.70323 13.166 7.4111 12.8648 7.16398C12.1515 6.57872 11.3431 6.22156 10.4167 6.14952C10.2907 6.13952 10.1646 6.12752 10.0386 6.12752C8.90504 6.12551 7.77253 6.12651 6.63902 6.12651C6.50496 6.12651 6.49295 6.13852 6.49295 6.27058C6.49295 6.99691 6.49295 7.72324 6.49295 8.44957C6.49295 8.47158 6.49495 8.49259 6.49495 8.5146C6.49595 8.55361 6.51796 8.57262 6.55398 8.57562C6.587 8.57862 6.62001 8.57962 6.65403 8.57962C9.0251 8.57962 11.3962 8.57962 13.7672 8.57962C13.7802 8.57962 13.7943 8.58263 13.8073 8.57862C13.8363 8.57062 13.8643 8.56062 13.8933 8.55061C13.8933 8.54661 13.8923 8.54161 13.8923 8.53761C13.8863 8.5336 13.8783 8.5286 13.8713 8.5246ZM13.8723 12.5054C13.7913 12.5034 13.7052 12.5004 13.6192 12.5004C13.5411 12.5004 13.4631 12.5064 13.3841 12.5064C11.1461 12.5064 8.90704 12.5064 6.66903 12.5064C6.63602 12.5064 6.602 12.5064 6.56899 12.5084C6.52097 12.5114 6.50396 12.5274 6.49896 12.5754C6.49595 12.6034 6.49395 12.6315 6.49395 12.6605C6.49395 13.3688 6.49395 14.0771 6.49395 14.7854C6.49395 14.8084 6.49395 14.8325 6.49695 14.8555C6.50196 14.9015 6.51696 14.9165 6.56298 14.9205C6.596 14.9235 6.63001 14.9235 6.66303 14.9245C6.83511 14.9245 7.00619 14.9245 7.17826 14.9245C8.08167 14.9265 8.98508 14.9265 9.88749 14.9325C10.0536 14.9335 10.2146 14.8975 10.3787 14.8875C10.5118 14.8795 10.6448 14.8525 10.7769 14.8295C11.02 14.7874 11.2561 14.7194 11.4922 14.6454C11.7293 14.5713 11.9434 14.4453 12.1745 14.3582C12.8758 13.9791 13.4201 13.4408 13.8103 12.7455C13.8333 12.7045 13.8563 12.6645 13.8753 12.6215C13.8903 12.5864 13.9033 12.5494 13.8723 12.5054ZM10.3867 11.2048C11.6383 11.2048 12.8898 11.2048 14.1414 11.2048C14.1644 11.2048 14.1884 11.2048 14.2114 11.2028C14.2665 11.1978 14.2875 11.1758 14.2905 11.1198C14.2965 11.0237 14.3055 10.9287 14.3095 10.8326C14.3145 10.7176 14.3175 10.6025 14.3155 10.4875C14.3135 10.3734 14.3045 10.2584 14.2995 10.1443C14.2965 10.0763 14.2955 10.0083 14.2915 9.94024C14.2865 9.8572 14.2595 9.83319 14.1754 9.83019C14.1634 9.83019 14.1524 9.83019 14.1404 9.83019C11.6403 9.83019 9.14115 9.83019 6.64102 9.83019C6.51296 9.83019 6.49295 9.8502 6.49295 9.97726C6.49295 10.3384 6.49295 10.7006 6.49295 11.0617C6.49295 11.0898 6.49495 11.1188 6.49695 11.1468C6.49896 11.1808 6.51796 11.1988 6.55098 11.1998C6.58299 11.2018 6.61401 11.2038 6.64602 11.2038C7.89359 11.2048 9.14015 11.2048 10.3867 11.2048Z" fill="#FDFDFC"/>
<path d="M13.8712 8.52463C13.8782 8.52964 13.8852 8.53364 13.8932 8.53864C13.8932 8.54264 13.8942 8.54764 13.8942 8.55165C13.8652 8.56065 13.8372 8.57165 13.8082 8.57966C13.7962 8.58266 13.7812 8.58066 13.7682 8.58066C11.3971 8.58066 9.02605 8.58066 6.65498 8.58066C6.62197 8.58066 6.58795 8.58066 6.55494 8.57666C6.51892 8.57366 6.49691 8.55365 6.49591 8.51563C6.49591 8.49362 6.49391 8.47261 6.49391 8.4506C6.49391 7.72427 6.49391 6.99794 6.49391 6.2716C6.49391 6.13954 6.50592 6.12754 6.63998 6.12754C7.77349 6.12754 8.906 6.12654 10.0395 6.12854C10.1656 6.12854 10.2916 6.14155 10.4177 6.15055C11.3441 6.22258 12.1525 6.57974 12.8658 7.16501C13.1669 7.41212 13.418 7.70426 13.6301 8.03041C13.7032 8.14346 13.7702 8.26051 13.8362 8.37857C13.8592 8.42059 13.8682 8.47061 13.8832 8.51663C13.8782 8.51863 13.8752 8.52163 13.8712 8.52463Z" fill="#FEA900"/>
<path d="M13.8722 12.5055C13.9042 12.5495 13.8912 12.5865 13.8752 12.6215C13.8562 12.6635 13.8332 12.7045 13.8101 12.7456C13.42 13.4409 12.8747 13.9781 12.1744 14.3582C11.9433 14.4463 11.7292 14.5713 11.4921 14.6453C11.257 14.7194 11.0209 14.7874 10.7768 14.8294C10.6447 14.8524 10.5117 14.8784 10.3786 14.8874C10.2146 14.8975 10.0535 14.9335 9.88741 14.9325C8.98401 14.9265 8.08061 14.9265 7.17821 14.9245C7.00614 14.9245 6.83506 14.9245 6.66299 14.9245C6.62997 14.9245 6.59596 14.9235 6.56294 14.9205C6.51592 14.9165 6.50192 14.9015 6.49691 14.8554C6.49491 14.8324 6.49391 14.8084 6.49391 14.7854C6.49391 14.0771 6.49391 13.3688 6.49391 12.6605C6.49391 12.6325 6.49491 12.6035 6.49891 12.5755C6.50492 12.5275 6.52192 12.5115 6.56894 12.5085C6.60196 12.5065 6.63597 12.5065 6.66899 12.5065C8.90698 12.5065 11.146 12.5065 13.384 12.5065C13.462 12.5065 13.54 12.5005 13.6191 12.5005C13.7041 12.4995 13.7901 12.5035 13.8722 12.5055Z" fill="#FEA900"/>
<path d="M10.3866 11.2048C9.14008 11.2048 7.89353 11.2048 6.64698 11.2048C6.61497 11.2048 6.58395 11.2028 6.55194 11.2008C6.51892 11.1988 6.49991 11.1808 6.49791 11.1478C6.49591 11.1197 6.49391 11.0907 6.49391 11.0627C6.49391 10.7016 6.49391 10.3394 6.49391 9.97824C6.49391 9.85019 6.51392 9.83118 6.64198 9.83118C9.14208 9.83118 11.6412 9.83118 14.1413 9.83118C14.1533 9.83118 14.1643 9.83118 14.1763 9.83118C14.2603 9.83418 14.2864 9.85819 14.2924 9.94123C14.2964 10.0093 14.2974 10.0773 14.3004 10.1453C14.3054 10.2594 14.3144 10.3744 14.3164 10.4885C14.3184 10.6035 14.3144 10.7186 14.3104 10.8336C14.3064 10.9297 14.2984 11.0247 14.2914 11.1207C14.2874 11.1768 14.2673 11.1988 14.2123 11.2038C14.1893 11.2058 14.1653 11.2058 14.1423 11.2058C12.8897 11.2048 11.6382 11.2048 10.3866 11.2048Z" fill="#FEA900"/>
</g>
<defs>
<clipPath id="clip0_842_16638">
<rect width="20" height="19.998" fill="white" transform="translate(0 0.501007)"/>
</clipPath>
</defs>
</svg>
