<svg xmlns="http://www.w3.org/2000/svg" id="Layer_1" data-name="Layer 1" viewBox="39.48 40.85 171.08 168.31"><defs><style>.cls-1{fill:#00dccb;}</style></defs><path class="cls-1" d="M113.75,146.45c6-1.2,12-2.4,18.05-3.5a7.37,7.37,0,0,1,2.34.43,7.25,7.25,0,0,1-1.29,1.82c-5.65,4.6-12.3,5.32-19.19,4.74-1.82-.14-2.54.34-3.11,1.92-1.2,3.15-2.54,6.27-4.07,10.09,3.78-1.86,6.84-3.49,10-4.78a40.09,40.09,0,0,1,7.56-2.11,3.62,3.62,0,0,1,2.83,1.15c.33.43-.34,2.11-1,2.63a27.78,27.78,0,0,1-6.17,3.93c-4.36,1.77-8.91,3-14.17,2.15-3.83,13.69-7.23,27.81-17.85,39.11-2.92-1.68-6.23-3.26-9.19-5.27-24.75-16.89-38.63-40.06-39-70.17-.43-35.51,15.79-61.88,47-78.35,31.88-16.8,71.6-10.53,97.5,14.51,19.52,18.85,28.76,42.16,26.13,69.06-3.59,36.14-23.17,60.69-57,73.81-.53.19-1.06.38-1.58.52-2.44.82-4.65,2.06-7.09-.62s-2-5-.81-7.85c2.63-5.89,5.27-11.77,7.61-17.76,1.34-3.39,2.06-7,3.16-10.48a34.17,34.17,0,0,1,2-5.12,4.94,4.94,0,0,1,4.74-2.87c5.79-.19,11.58-.77,17.37-1.34,3.12-.34,4.65-2,5-5.12a9.66,9.66,0,0,0,0-3.35c-.67-2.78-.29-5.12,1.92-7.09,1.1-1,.57-2-.43-2.82-1.25-1.1-1.58-2.25-.1-3.35,1.77-1.34,1.67-2.78.67-4.6-1.58-2.77-1.48-2.77,1.24-4.54a27.66,27.66,0,0,0,3.83-2.83c1.34-1.24,1.39-2.39-.24-3.73-3.68-3-7.18-6.27-10.77-9.43-3-2.63-3.78-6-2.2-9.52s.82-6.08-1.24-9a81.14,81.14,0,0,1-5.31-9c-1.44-2.78-2.59-5.74-3.88-8.62-2.59-5.64-7.52-8.08-13.16-9.28-4.36-.91-8.81-1.39-13.21-2.06-5.36-.81-10.68-1.91-16-2.44a33.17,33.17,0,0,0-25,7.37c-5,4.07-9.57,8.57-14.55,12.64-1.58,1.29-3.78,1.77-5.74,2.58-.63.29-1.73.24-2,.67-1.67,3.4-6.79,3.4-7.66,7.76-.14.67-2.34.9-3.73,1.38.53.39,1,.77,1.68,1.2a2.82,2.82,0,0,1-.58.72c-2,2.15-4.35,4.07-5.93,6.46-1.15,1.72-1.25,4.16-1.73,6.32-.23,1.19-.28,2.44-.43,3.63,0,.24-.09.58,0,.67,2.3,1.44.2,2.73-.14,4.07s-1.05,2.3-1.34,3.54c-.14.72-.91,2.16,1.1,2.11.19,0,.62,1.2.62,1.87.24,5.07,2.4,8.8,7.23,10.86,1.82.77,2.63,2.35,3,4.31a40.35,40.35,0,0,0,1.57,5.74,5.1,5.1,0,0,0,3.64,3.64,4.66,4.66,0,0,1,2.4,2.3c1.43,2.92,2.34,6.12,4,8.9A15.75,15.75,0,0,0,86,169.23c3.35,2.06,7,3.59,10.58,5.31a42.76,42.76,0,0,0,4.31,1.58,68.44,68.44,0,0,1,1.86-8.33c1.2-3.49.86-5.93-1.86-9-2.87-3.21-4.31-7.71-6.27-11.68a4.38,4.38,0,0,1-.39-2.35c.1-.76.48-1.86,1.06-2.1a3.24,3.24,0,0,1,2.34.62A4.25,4.25,0,0,1,99,144.87a70.33,70.33,0,0,1,3.49,6.51c1,2.2,1.82,4.54,2.78,7,1.24-3,2.49-5.93,3.64-9,.14-.43-.19-1-.24-1.57-.82-6.8-1.72-13.6-2.39-20.39-.2-1.73-.44-4.22,1.91-4.6,2.54-.38,2.58,2.25,2.87,3.88.72,4.88,1.2,9.76,1.82,14.88,1.77-4.4,6-7.42,5.36-13.21-.57-5,0-10.14.53-15.22a10.47,10.47,0,0,1,5-8.09c1.44,7.52.67,14.41-1,21.35,2.35-2.63,4.74-5.26,7-7.9.33-.38.28-1,.38-1.58,1.39-9.52,6.27-17.23,12.73-24.12.38-.38,1.1-.43,1.63-.67a5.72,5.72,0,0,1,.24,1.72c-.91,5.8-3.74,10.77-6.66,15.75a1.21,1.21,0,0,1-.19.48,2.28,2.28,0,0,0,.58-.05c5.36-4.69,10.72-9.33,17.28-12.25a65.19,65.19,0,0,1,7.56-2.39c.19.33.43.67.62.95a9.54,9.54,0,0,1-1.72,2.11q-9.19,6-18.43,12a41.4,41.4,0,0,0-5.22,3.64c.91-.14,1.82-.29,2.73-.38,4.6-.53,9.14-1.1,13.74-1.58.57,0,1.19.48,1.82.72-.43.52-.72,1.19-1.25,1.53a33.09,33.09,0,0,1-21.54,4.74,2.35,2.35,0,0,0-1.91.43c-2.82,3.21-5.6,6.51-8.38,9.76a2,2,0,0,1-.24.39c.2,0,.34,0,.53-.1a43.94,43.94,0,0,1,20.63-4c.33.43.62.91,1,1.34a17,17,0,0,0-2.49,1.24,35.32,35.32,0,0,1-21.68,6.27,3.22,3.22,0,0,0-2.49,1.15c-2.16,3.35-4.07,6.84-6,10.29,0,.19,0,.38,0,.58C113.56,146.59,113.66,146.5,113.75,146.45Z"/></svg>