<svg width="20" height="19" viewBox="0 0 20 19" fill="none" xmlns="http://www.w3.org/2000/svg">
<path d="M10.0402 18.2002C10.0132 18.2002 9.98721 18.2002 9.96019 18.2002C9.92718 18.1752 9.89216 18.1541 9.86315 18.1261C8.27839 16.6084 6.69363 15.0897 5.10987 13.5709C3.43107 11.9632 1.75227 10.3544 0.0734623 8.74564C-0.0125789 8.6636 -0.0195823 8.61958 0.0344436 8.50652C1.23802 5.97931 2.4416 3.4511 3.64417 0.922894C3.68519 0.836853 3.74122 0.799835 3.83726 0.799835C7.94723 0.800836 12.0562 0.800836 16.1662 0.799835C16.2582 0.799835 16.3142 0.834852 16.3533 0.917892C17.3547 3.0239 18.3572 5.12991 19.3597 7.23592C19.5728 7.68413 19.7859 8.13335 20 8.58156C20 8.60457 20 8.62858 20 8.65159C19.968 8.69061 19.939 8.73363 19.903 8.76865C19.5778 9.0818 19.2516 9.39395 18.9255 9.7061C17.7269 10.8546 16.5293 12.0022 15.3308 13.1507C13.661 14.7505 11.9912 16.3513 10.3214 17.95C10.2313 18.0371 10.1343 18.1171 10.0402 18.2002ZM5.26195 3.17197C5.25994 3.17497 5.25794 3.17897 5.25694 3.18198C5.25694 3.6602 5.25694 4.13743 5.25694 4.61566C5.25694 4.9068 5.25794 5.19794 5.25794 5.49008C5.25994 5.49208 5.26195 5.49508 5.26395 5.49708C6.4225 5.49708 7.58206 5.49708 8.73961 5.49708C8.73961 6.01033 8.73961 6.51357 8.73961 7.01781C8.62856 7.02582 8.52051 7.03382 8.41345 7.04082C8.31241 7.04682 8.21136 7.05083 8.11031 7.05883C7.95023 7.07184 7.79016 7.08684 7.63008 7.10085C7.50102 7.11186 7.37196 7.11886 7.24389 7.13587C6.91574 7.17889 6.58658 7.22091 6.25942 7.27293C5.77219 7.35097 5.29096 7.45602 4.82274 7.6131C4.56461 7.69914 4.31249 7.79919 4.08538 7.95226C3.98834 8.01729 3.89929 8.09333 3.83626 8.19437C3.75823 8.32143 3.75723 8.4495 3.83626 8.57656C3.86128 8.61758 3.89329 8.65459 3.92631 8.68961C4.02635 8.79166 4.14641 8.8667 4.27347 8.93173C4.56761 9.0838 4.88076 9.18585 5.19892 9.27189C5.67514 9.40095 6.15938 9.48999 6.64761 9.56003C6.87972 9.59304 7.11183 9.62606 7.34494 9.65107C7.57905 9.67608 7.81417 9.69209 8.04828 9.7101C8.17034 9.7201 8.2924 9.72611 8.41445 9.73311C8.52251 9.74011 8.62956 9.74612 8.74261 9.75212C8.74261 9.77713 8.74261 9.79814 8.74261 9.81915C8.74261 11.4009 8.74261 12.9817 8.74261 14.5634C8.74261 14.5854 8.74361 14.6064 8.74361 14.6285C8.74661 14.6305 8.74861 14.6325 8.75162 14.6345C8.76362 14.6345 8.77463 14.6355 8.78663 14.6355C9.59702 14.6355 10.4084 14.6355 11.2188 14.6355C11.2318 14.6355 11.2458 14.6345 11.2588 14.6335C11.2608 14.6315 11.2628 14.6295 11.2648 14.6275C11.2648 14.6054 11.2658 14.5844 11.2658 14.5624C11.2658 12.9807 11.2658 11.3999 11.2658 9.81815C11.2658 9.79614 11.2658 9.77313 11.2658 9.75312C11.3769 9.74512 11.4789 9.73811 11.581 9.73011C11.7781 9.7161 11.9742 9.7041 12.1713 9.68809C12.3433 9.67408 12.5144 9.65808 12.6855 9.63807C12.9266 9.61005 13.1687 9.58104 13.4088 9.54702C13.8901 9.47799 14.3673 9.38795 14.8365 9.25788C15.1647 9.16684 15.4868 9.06079 15.785 8.89471C15.921 8.81867 16.0491 8.73163 16.1422 8.60257C16.2472 8.4555 16.2492 8.30243 16.1392 8.15936C16.0931 8.09933 16.0371 8.0453 15.9781 7.99728C15.833 7.88022 15.6659 7.80019 15.4948 7.72915C14.9876 7.51905 14.4553 7.39999 13.9181 7.29995C13.3878 7.2019 12.8536 7.13787 12.3173 7.08885C12.1492 7.07384 11.9812 7.05983 11.8121 7.04883C11.668 7.03982 11.5229 7.03582 11.3789 7.02782C11.3419 7.02582 11.3048 7.01881 11.2678 7.01381C11.2678 6.50657 11.2678 6.00333 11.2678 5.49408C11.2938 5.49408 11.3168 5.49408 11.3399 5.49408C12.4744 5.49408 13.6089 5.49408 14.7445 5.49308C14.7465 5.49108 14.7485 5.48808 14.7505 5.48608C14.7505 5.46407 14.7515 5.44306 14.7515 5.42105C14.7515 4.67369 14.7515 3.92633 14.7515 3.17897C14.7495 3.17597 14.7475 3.17197 14.7465 3.16897C14.7285 3.16897 14.7095 3.16797 14.6915 3.16797C11.566 3.16797 8.43947 3.16797 5.31397 3.16797C5.29796 3.17097 5.27995 3.17197 5.26195 3.17197Z" fill="#0BB193"/>
<path d="M14.7539 3.18299C14.7539 3.93035 14.7539 4.67771 14.7539 5.42507C14.7539 5.44708 14.7529 5.46809 14.7529 5.4901C14.7489 5.4911 14.7469 5.4931 14.7469 5.4971C13.6123 5.4971 12.4778 5.4971 11.3423 5.4981C11.3192 5.4981 11.2962 5.4981 11.2702 5.4981C11.2702 6.00635 11.2702 6.51059 11.2702 7.01783C11.3062 7.02284 11.3443 7.02984 11.3813 7.03184C11.5253 7.03984 11.6704 7.04384 11.8145 7.05285C11.9826 7.06385 12.1516 7.07686 12.3197 7.09287C12.856 7.14189 13.3902 7.20492 13.9205 7.30397C14.4577 7.40402 14.99 7.52308 15.4972 7.73318C15.6683 7.80421 15.8354 7.88425 15.9805 8.0013C16.0395 8.04933 16.0955 8.10335 16.1415 8.16338C16.2506 8.30645 16.2496 8.45952 16.1445 8.6066C16.0515 8.73566 15.9234 8.8227 15.7874 8.89874C15.4882 9.06482 15.1661 9.17087 14.8389 9.26191C14.3697 9.39197 13.8925 9.48202 13.4112 9.55105C13.1711 9.58507 12.929 9.61408 12.6879 9.64209C12.5168 9.6621 12.3447 9.67811 12.1736 9.69212C11.9776 9.70812 11.7805 9.72013 11.5834 9.73414C11.4813 9.74114 11.3793 9.74914 11.2682 9.75715C11.2682 9.77716 11.2682 9.79917 11.2682 9.82218C11.2682 11.4039 11.2682 12.9847 11.2682 14.5665C11.2682 14.5885 11.2672 14.6095 11.2672 14.6315C11.2642 14.6315 11.2622 14.6335 11.2612 14.6375C11.2482 14.6385 11.2342 14.6395 11.2212 14.6395C10.4108 14.6395 9.59942 14.6395 8.78903 14.6395C8.77702 14.6395 8.76602 14.6385 8.75401 14.6385C8.75301 14.6345 8.75001 14.6335 8.74601 14.6325C8.74601 14.6105 8.74501 14.5895 8.74501 14.5675C8.74501 12.9857 8.74501 11.4049 8.74501 9.82318C8.74501 9.80217 8.74501 9.78016 8.74501 9.75615C8.63295 9.74914 8.5249 9.74314 8.41685 9.73714C8.29479 9.73013 8.17273 9.72313 8.05067 9.71413C7.81556 9.69612 7.58145 9.68011 7.34734 9.6551C7.11423 9.63009 6.88212 9.59807 6.65 9.56405C6.16177 9.49402 5.67754 9.40598 5.20131 9.27592C4.88316 9.18988 4.57001 9.08783 4.27587 8.93575C4.14981 8.87072 4.02975 8.79569 3.9287 8.69364C3.89469 8.65962 3.86367 8.6216 3.83866 8.58058C3.75962 8.45452 3.76062 8.32546 3.83866 8.1984C3.90069 8.09735 3.98973 8.02131 4.08778 7.95628C4.31489 7.80321 4.56701 7.70316 4.82513 7.61712C5.29335 7.46004 5.77559 7.356 6.26182 7.27696C6.58898 7.22493 6.91813 7.18291 7.24629 7.13989C7.37435 7.12288 7.50341 7.11688 7.63247 7.10487C7.79255 7.09087 7.95263 7.07486 8.1127 7.06285C8.21375 7.05485 8.3148 7.05185 8.41585 7.04485C8.5239 7.03784 8.63095 7.02984 8.74201 7.02183C8.74201 6.51759 8.74201 6.01435 8.74201 5.5011C7.58445 5.5011 6.4249 5.5011 5.26634 5.5011C5.26634 5.4971 5.26434 5.4951 5.26034 5.4941C5.26034 5.20296 5.25934 4.91182 5.25934 4.61968C5.25934 4.14145 5.25934 3.66422 5.25934 3.18599C5.26134 3.18299 5.26334 3.17899 5.26434 3.17599C5.28235 3.17599 5.30136 3.17499 5.31937 3.17499C8.44486 3.17499 11.5714 3.17499 14.6969 3.17499C14.7149 3.17499 14.7339 3.17599 14.7519 3.17599C14.7499 3.17599 14.7519 3.17899 14.7539 3.18299ZM11.2632 7.21193C11.2632 7.77119 11.2632 8.33046 11.2632 8.88973C11.2612 8.89273 11.2602 8.89673 11.2582 8.89974C11.1872 8.90674 11.1171 8.91674 11.0461 8.91974C10.859 8.92775 10.6709 8.93875 10.4838 8.93975C10.1507 8.94075 9.81852 8.93575 9.48536 8.93175C9.3543 8.92975 9.22324 8.92475 9.09217 8.91874C8.97812 8.91374 8.86406 8.90574 8.75001 8.89874C8.74801 8.89573 8.74501 8.89273 8.74301 8.88873C8.74301 8.32746 8.74301 7.76619 8.74301 7.19592C8.66997 7.20092 8.60194 7.20592 8.53491 7.20992C8.42585 7.21593 8.3158 7.21893 8.20675 7.22593C8.03167 7.23894 7.85658 7.25395 7.6815 7.26895C7.49741 7.28496 7.31132 7.29697 7.12823 7.32198C6.75906 7.373 6.38988 7.42603 6.0227 7.49006C5.64752 7.55609 5.27635 7.64613 4.92218 7.7922C4.80012 7.84223 4.68506 7.91126 4.56901 7.97629C4.52799 7.9993 4.49197 8.03532 4.45896 8.07034C4.3399 8.1964 4.3399 8.32946 4.45695 8.45652C4.555 8.56257 4.68006 8.62961 4.80912 8.68863C5.10627 8.8247 5.41942 8.90774 5.73657 8.97977C6.23581 9.09183 6.74105 9.16586 7.24929 9.21989C7.4684 9.2429 7.6885 9.26191 7.90861 9.28092C8.07168 9.29493 8.23476 9.30993 8.39784 9.31894C8.55792 9.32894 8.71899 9.33194 8.87907 9.33895C9.04815 9.34595 9.21723 9.35896 9.38631 9.35896C9.83453 9.35996 10.2817 9.35495 10.73 9.35195C10.848 9.35095 10.9661 9.34695 11.0831 9.34095C11.2672 9.33294 11.4503 9.32294 11.6344 9.31193C11.8275 9.29993 12.0206 9.28692 12.2137 9.27091C12.3878 9.25691 12.5618 9.2409 12.7359 9.22089C12.974 9.19288 13.2131 9.16886 13.4483 9.12885C13.7874 9.06982 14.1256 9.00379 14.4617 8.92975C14.7159 8.87372 14.964 8.79269 15.2011 8.68063C15.3192 8.6246 15.4362 8.56357 15.5283 8.46853C15.6413 8.35247 15.6573 8.22041 15.5583 8.09735C15.5192 8.04933 15.4692 8.00831 15.4182 7.97229C15.2851 7.87825 15.1361 7.81522 14.984 7.75919C14.7429 7.66915 14.4948 7.60211 14.2436 7.54909C14.1066 7.52007 13.9685 7.49206 13.8304 7.46705C13.6534 7.43503 13.4753 7.40602 13.2962 7.37901C13.1861 7.362 13.0751 7.35199 12.964 7.33899C12.83 7.32298 12.6969 7.30397 12.5628 7.29096C12.4338 7.27796 12.3037 7.27095 12.1736 7.26095C12.0406 7.25094 11.9075 7.24094 11.7745 7.23093C11.7134 7.22693 11.6524 7.22393 11.5914 7.22093C11.4843 7.21493 11.3773 7.20792 11.2692 7.20192C11.2672 7.20492 11.2652 7.20892 11.2632 7.21193Z" fill="#FEFEFE"/>
<path d="M5.26193 3.17194C5.25982 3.17508 5.25771 3.17927 5.25665 3.18241C5.25771 3.17927 5.25982 3.17613 5.26193 3.17194Z" fill="#7ACDB9"/>
<path d="M14.7541 3.18336C14.752 3.18021 14.75 3.17602 14.7489 3.17288C14.75 3.17602 14.752 3.17917 14.7541 3.18336Z" fill="#7ACDB9"/>
<path d="M5.25858 5.49011C5.26294 5.49121 5.26512 5.4934 5.26512 5.49779C5.26294 5.4956 5.26076 5.49231 5.25858 5.49011Z" fill="#7ACDB9"/>
<path d="M14.747 5.49779C14.747 5.4934 14.7492 5.49121 14.7536 5.49011C14.7503 5.49231 14.7492 5.4956 14.747 5.49779Z" fill="#7ACDB9"/>
<path d="M8.74442 14.6284C8.74878 14.6284 8.75096 14.6306 8.75314 14.635C8.74987 14.6317 8.7466 14.6306 8.74442 14.6284Z" fill="#90D4C4"/>
<path d="M11.2593 14.6334C11.2593 14.6304 11.2613 14.6285 11.2652 14.6275C11.2632 14.6295 11.2613 14.6314 11.2593 14.6334Z" fill="#90D4C4"/>
<path d="M8.75188 8.89871C8.86593 8.90571 8.97998 8.91371 9.09404 8.91872C9.2251 8.92472 9.35616 8.92972 9.48723 8.93172C9.82039 8.93572 10.1525 8.94073 10.4857 8.93973C10.6728 8.93873 10.8609 8.92872 11.048 8.91972C11.119 8.91672 11.189 8.90671 11.2601 8.89971C11.2621 8.89671 11.2631 8.8927 11.2651 8.8897C11.2651 8.33044 11.2651 7.77118 11.2651 7.21192C11.2671 7.20792 11.2691 7.20492 11.2711 7.20092C11.3781 7.20692 11.4852 7.21392 11.5932 7.21993C11.6543 7.22393 11.7153 7.22593 11.7763 7.22993C11.9094 7.23894 12.0425 7.24994 12.1755 7.25995C12.3056 7.26995 12.4356 7.27695 12.5647 7.28996C12.6988 7.30297 12.8318 7.32197 12.9659 7.33798C13.0769 7.35099 13.188 7.36199 13.2981 7.378C13.4761 7.40501 13.6542 7.43503 13.8323 7.46604C13.9704 7.49105 14.1084 7.51907 14.2455 7.54808C14.4966 7.6011 14.7447 7.66814 14.9859 7.75818C15.1379 7.8142 15.287 7.87723 15.4201 7.97128C15.4711 8.00729 15.5211 8.04831 15.5601 8.09633C15.6602 8.21939 15.6442 8.35045 15.5301 8.46751C15.4371 8.56255 15.321 8.62358 15.203 8.67961C14.9658 8.79166 14.7177 8.8727 14.4636 8.92872C14.1274 9.00276 13.7893 9.06879 13.4501 9.12781C13.214 9.16883 12.9759 9.19284 12.7378 9.21986C12.5637 9.23987 12.3896 9.25587 12.2155 9.26988C12.0224 9.28589 11.8293 9.29889 11.6363 9.3109C11.4532 9.3219 11.2691 9.33191 11.085 9.33991C10.9669 9.34491 10.8499 9.34992 10.7318 9.35092C10.2836 9.35492 9.83639 9.35892 9.38818 9.35792C9.2191 9.35792 9.05002 9.34491 8.88094 9.33791C8.72086 9.33091 8.55978 9.32791 8.39971 9.3179C8.23663 9.3079 8.07355 9.29389 7.91047 9.27988C7.69037 9.26088 7.47026 9.24287 7.25116 9.21886C6.74291 9.16483 6.23767 9.0908 5.73843 8.97874C5.42128 8.90771 5.10813 8.82367 4.81099 8.68761C4.68193 8.62858 4.55687 8.56155 4.45882 8.4555C4.34176 8.32844 4.34176 8.19538 4.46082 8.06932C4.49384 8.03431 4.52985 7.99929 4.57087 7.97528C4.68693 7.91025 4.80198 7.84122 4.92404 7.79119C5.27821 7.64512 5.64839 7.55508 6.02457 7.48905C6.39175 7.42502 6.76092 7.372 7.1301 7.32097C7.31319 7.29596 7.49928 7.28396 7.68336 7.26795C7.85845 7.25194 8.03353 7.23694 8.20862 7.22493C8.31767 7.21693 8.42772 7.21392 8.53677 7.20892C8.6038 7.20492 8.67184 7.19992 8.74487 7.19492C8.74487 7.76518 8.74487 8.32644 8.74487 8.8877C8.74687 8.8927 8.74887 8.89571 8.75188 8.89871Z" fill="#0BB194"/>
<path d="M11.2712 7.20096C11.2691 7.20515 11.267 7.2083 11.2649 7.21249C11.2659 7.20935 11.268 7.20515 11.2712 7.20096Z" fill="#6FC8B3"/>
<path d="M8.75176 8.89928C8.74966 8.89614 8.74651 8.89299 8.74442 8.88879C8.74651 8.89299 8.74861 8.89614 8.75176 8.89928Z" fill="#A0DBCD"/>
<path d="M11.2646 8.88974C11.2625 8.89289 11.2614 8.89708 11.2593 8.90023C11.2614 8.89708 11.2625 8.89289 11.2646 8.88974Z" fill="#6FC8B3"/>
</svg>
